<svg xmlns="http://www.w3.org/2000/svg" width="32" height="32" viewBox="0 0 32 32">
    <path fill="#F1A317" fill-rule="evenodd" d="M28.24 18.28c-.906.9-2.094 1.72-3.42 1.72h-.005c-.087 0-.187 0-.287.01-.174.02-.35.02-.528.02-.909 0-1.805-.22-2.561-.59h-.006a6.057 6.057 0 0 1-3.184-3.76c1.263-.37 2.445-1.03 3.409-2.03a.996.996 0 0 0-.022-1.41.992.992 0 0 0-1.414.02c-1.014 1.05-2.395 1.6-3.905 1.75-.104 0-.207.01-.317.01-.11 0-.214-.01-.319-.01-1.506-.15-2.888-.7-3.903-1.75a.992.992 0 0 0-1.414-.02.994.994 0 0 0-.022 1.41c.966 1 2.147 1.66 3.409 2.03a6.04 6.04 0 0 1-3.184 3.75l-.006.01c-.756.37-1.652.58-2.561.58-.301 0-.582-.02-.815-.07h-.044c-2.89-.41-5.145-2.92-5.141-5.93a5.945 5.945 0 0 1 1.82-4.3C4.928 8.64 6.426 8 7.949 8c.312 0 .625.03.938.08.266.05.546-.02.764-.18.219-.16.365-.41.401-.67.386-2.99 3.01-5.22 5.948-5.21 2.926-.01 5.561 2.18 5.948 5.2a.98.98 0 0 0 .4.68c.221.16.495.23.765.18.259-.05.564-.06.887-.06 1.656 0 3.15.67 4.24 1.76A5.99 5.99 0 0 1 30 14.03c0 1.65-.671 3.16-1.76 4.25zM20 25.02v4c0 .54-.457.98-1 .98h-6c-.543 0-1-.44-1-.98v-4c0-1.34-.535-2.55-1.39-3.44.283-.1.56-.21.827-.34a8.1 8.1 0 0 0 4.289-5.23c.076 0 .151-.01.226-.01h.094c.076 0 .152.01.228.01a8.037 8.037 0 0 0 4.289 5.21c.267.13.544.25.827.35-.855.9-1.39 2.11-1.39 3.45zm4-19h-.257c-.908-3.55-4.14-6-7.743-6-3.622 0-6.826 2.48-7.738 5.99-.104 0-.209-.01-.313-.01C3.794 6.01.014 9.42 0 14.02c.003 3.89 2.804 7.13 6.493 7.84.155.09.325.16.507.16 1.643 0 3 1.35 3 3v4c0 1.65 1.343 2.98 3 2.98h6c1.657 0 3-1.33 3-2.98v-4c0-1.65 1.357-3 3-3 .172 0 .334-.06.483-.15 3.706-.7 6.515-3.95 6.517-7.85a8.003 8.003 0 0 0-8-8z"/>
</svg>
