<svg xmlns="http://www.w3.org/2000/svg" width="32" height="32" viewBox="0 0 32 32">
    <g fill="#F1A317" fill-rule="evenodd">
        <path d="M25.86 8.824l-2.429 2.429a8.232 8.232 0 0 0-.645-.94 8.451 8.451 0 0 0-.589-.655 8.222 8.222 0 0 0-1.594-1.233l2.429-2.429c.301-.301.378-.763.192-1.145a1.986 1.986 0 0 1 .388-2.263l-.708-.708.708.707c.395-.394.9-.586 1.413-.587a1.99 1.99 0 0 1 1.415.587c.368.369.55.83.57 1.299a1 1 0 0 0 .96.959c.469.02.929.203 1.298.571.395.395.587.901.588 1.415a1.984 1.984 0 0 1-.588 1.413 1.987 1.987 0 0 1-2.263.388 1.002 1.002 0 0 0-1.145.192zm-7.05 17.998a9.912 9.912 0 0 0-.167-.759 11.18 11.18 0 0 0-.188-.623 14.133 14.133 0 0 0-.847-2.057 18.394 18.394 0 0 0-1.02-1.717 21.198 21.198 0 0 0-1.66-2.213 23.618 23.618 0 0 0-1.216-1.309c-1.731-1.731-3.534-3.025-5.24-3.896-1.212-.617-2.367-1.015-3.438-1.202 3.455-2.6 7.214-3.983 10.327-3.974 1.172 0 2.248.188 3.191.556a6.312 6.312 0 0 1 2.231 1.445 6.42 6.42 0 0 1 1.445 2.231c.367.942.555 2.019.555 3.191.009 3.113-1.373 6.872-3.973 10.327zm-1.901 1.709c-.059.469-.209.773-.369.927-.197.204-.63.398-1.36.398-.948.004-2.307-.344-3.804-1.112-1.5-.765-3.144-1.938-4.735-3.529-1.591-1.591-2.764-3.236-3.529-4.735-.768-1.497-1.116-2.856-1.112-3.805 0-.729.194-1.162.398-1.36.089-.092.233-.179.423-.25.232-.087.536-.148.937-.148.949-.004 2.308.344 3.805 1.112 1.499.765 3.144 1.938 4.735 3.529 1.591 1.591 2.764 3.236 3.529 4.735.318.62.548 1.207.726 1.76.057.175.113.348.156.513.15.575.232 1.1.23 1.531 0 .161-.013.301-.03.434zm10.949-17.705a3.995 3.995 0 0 0 2.825-6.824 3.914 3.914 0 0 0-1.806-1.023 3.932 3.932 0 0 0-1.023-1.806 3.993 3.993 0 0 0-5.657 0 3.994 3.994 0 0 0-1.168 2.825c0 .345.059.687.149 1.023l-2.534 2.534c-1.034-.321-2.136-.433-3.283-.433C10.723 7.133 5.384 10 .984 14h.163C.262 14.712.14 15.666.14 16.675c.004 1.402.392 3.006 1.261 4.714a20.692 20.692 0 0 0 3.826 5.24c1.731 1.73 3.534 3.025 5.239 3.896 1.709.869 3.313 1.327 4.714 1.331 1.055-.001 2.054-.271 2.775-.984 4.388-4.4 6.817-9.74 6.828-14.377 0-1.148-.162-2.25-.482-3.283l2.534-2.534c.336.09.678.148 1.023.148z"/>
        <path d="M11.59 24.508c0-.001-.02.037-.221.041-.234.004-.658-.098-1.128-.346a6.187 6.187 0 0 1-1.479-1.109 6.197 6.197 0 0 1-1.11-1.48c-.248-.47-.35-.893-.346-1.127.004-.201.044-.219.042-.221l-.707-.708.707.707c.001.001.021-.038.222-.042.234-.004.657.098 1.127.346.472.245.994.624 1.48 1.11a6.18 6.18 0 0 1 1.109 1.479c.248.47.35.894.346 1.128-.004.201-.044.22-.042.222zm.001-4.243a8.18 8.18 0 0 0-1.97-1.47c-.678-.349-1.358-.568-2.051-.572-.56-.004-1.179.169-1.636.628v-.001.001c-.459.457-.632 1.076-.628 1.636.004.693.223 1.373.572 2.051a8.18 8.18 0 0 0 1.47 1.97 8.155 8.155 0 0 0 1.97 1.469c.678.35 1.357.568 2.051.572.56.004 1.179-.168 1.636-.627.458-.457.631-1.076.627-1.636-.004-.693-.222-1.373-.572-2.051a8.155 8.155 0 0 0-1.469-1.97z"/>
    </g>
</svg>
