<svg xmlns="http://www.w3.org/2000/svg" width="32" height="32" viewBox="0 0 32 32">
    <g fill="#F1A317" fill-rule="evenodd">
        <path d="M3.671 17.156c1.47-1.894 2.177-4.123 2.74-6.249C7.775 5.72 12.537 1.997 18 2c.859 0 1.737.092 2.625.285 4.607.995 8.309 4.807 9.164 9.441.143.77.211 1.53.211 2.274.002 5.797-4.159 10.727-9.749 11.781-1.976.376-3.634 1.414-5.09 2.527A8.192 8.192 0 0 1 10.156 30c-2.255 0-4.291-.9-5.77-2.352C2.908 26.194 2.001 24.202 2 22a7.855 7.855 0 0 1 1.671-4.844zM10.156 32c2.34 0 4.504-.787 6.222-2.104 1.347-1.035 2.75-1.871 4.244-2.15C27.156 26.511 31.998 20.769 32 14c0-.867-.08-1.749-.245-2.639C30.737 5.915 26.462 1.513 21.05.33A14.363 14.363 0 0 0 18 0C11.62.003 6.078 4.329 4.477 10.398c-.539 2.057-1.197 4.01-2.384 5.529A9.852 9.852 0 0 0 0 22c.004 5.531 4.566 10 10.156 10z"/>
        <path d="M17 8a5.016 5.016 0 0 1 5 5 5.016 5.016 0 0 1-5 5 5.016 5.016 0 0 1-5-5 5.016 5.016 0 0 1 5-5zm0 12a7.006 7.006 0 0 0 7-7 7.006 7.006 0 0 0-7-7 7.006 7.006 0 0 0-7 7 7.006 7.006 0 0 0 7 7z"/>
        <path d="M17 11c1.1.002 1.998.9 2 2a1 1 0 0 0 2 0 4.004 4.004 0 0 0-4-4 1 1 0 0 0 0 2"/>
    </g>
</svg>
