<svg xmlns="http://www.w3.org/2000/svg" width="304" height="119" viewBox="0 0 304 119">
    <path fill="#F1A317" fill-opacity=".8" fill-rule="evenodd" d="M44.248 12.858C93.071 4.286 126.655 0 145 0c18.851 0 56.811 4.526 113.88 13.577C284.869 17.7 304 40.105 304 66.417V74.5c0 24.556-19.907 44.463-44.463 44.463-2.614 0-5.223-.23-7.797-.69C198.317 108.759 162.738 104 145 104c-17.072 0-48.103 4.408-93.092 13.224C28.312 121.847 5.436 106.467.813 82.872A43.536 43.536 0 0 1 0 74.5v-8.948C0 39.574 18.662 17.35 44.248 12.858z" style="mix-blend-mode:multiply"/>
</svg>
