<svg xmlns="http://www.w3.org/2000/svg" width="56" height="62" viewBox="0 0 56 62">
    <path fill="#F8B337" fill-rule="evenodd" d="M21.395 24.159l6.633 3.682 19.29-10.659-6.884-3.822-19.04 10.799zm13.36-13.953L28 6.455 8.755 17.142l6.96 3.863 19.04-10.8zm-3.982 43.816l19.409-10.807V21.931l-19.41 10.706v21.385zm-5.546-21.39L5.818 21.854V43.26l19.41 10.769V32.632zM1.7 14.712L26.653.85a2.773 2.773 0 0 1 2.694 0L54.3 14.713a2.773 2.773 0 0 1 1.426 2.423v27.728a2.773 2.773 0 0 1-1.426 2.423L29.347 61.151a2.773 2.773 0 0 1-2.694 0L1.7 47.287a2.773 2.773 0 0 1-1.426-2.423V17.136c0-1.007.546-1.934 1.426-2.423zm8.336 19.544a2.773 2.773 0 0 1 2.719-4.833l6.907 3.885a2.773 2.773 0 0 1-2.719 4.833l-6.907-3.885z"/>
</svg>
