<svg xmlns="http://www.w3.org/2000/svg" width="50" height="59" viewBox="0 0 50 59">
    <path fill="#F8B337" fill-rule="evenodd" d="M11.802 57.468c-3.554 2.052-8.102.827-10.15-2.72-2.052-3.555-.823-8.106 2.719-10.15l5.82-3.362-5.82-3.36C.817 35.823-.396 31.271 1.652 27.724c2.052-3.554 6.608-4.766 10.15-2.72l13.164 7.6c5.51-3.16 13.34-7.6 13.34-7.6a7.388 7.388 0 0 1 3.315-.986 7.431 7.431 0 0 1 4.134 13.857l-5.838 3.36 5.821 3.361c3.554 2.052 4.767 6.604 2.719 10.15-2.052 3.555-6.608 4.766-10.15 2.721l-13.253-7.65-13.252 7.65zm3.794-13.111l-8.523 4.92a2.035 2.035 0 0 0-.74 2.768 2.031 2.031 0 0 0 2.767.743l10.55-6.091-4.054-2.34zm20.008-9.2a7.436 7.436 0 0 1-.774-1.905l-4.372 2.523 4.413 2.548c.648-.486 1.305-1.01 2.028-1.513a7.434 7.434 0 0 1-1.295-1.654zm5.405 17.631c.962.555 2.21.222 2.767-.743a2.031 2.031 0 0 0-.74-2.767L15.294 33.26a7.437 7.437 0 0 1-.77 1.895 7.437 7.437 0 0 1-1.256 1.615l27.741 16.017zM6.333 30.428a2.027 2.027 0 1 0 3.51 2.026 2.027 2.027 0 0 0-3.51-2.027zm37.443 0a2.027 2.027 0 1 0-3.51 2.026 2.027 2.027 0 0 0 3.51-2.027zm-18.09-3.905c-2.365 0-3.903-.591-3.903-.591-.707-.209-1.814-.64-2.457-1.011 0 0-5.08-1.975-5.08-8.658 0-5.804 4.93-8.33 6.256-10.245 1.327-1.915 2.149-4.888 2.149-4.888.218-.695.881-.88 1.428-.396 0 0 5.224 3.439 4.426 11.586 1.893-1.401 3.164-4.424 3.164-4.424.323-.671.926-.714 1.32-.08 0 0 7.16 9.528-1.227 16.527-1.167.898-3.712 2.18-6.076 2.18z"/>
</svg>
