<svg xmlns="http://www.w3.org/2000/svg" width="101" height="100" viewBox="0 0 101 100">
    <g fill="#FFF1D8" fill-rule="evenodd">
        <path d="M7.074 84.713c.004-5.447 2.066-10.863 6.205-15.005l56.429-56.43c4.142-4.141 9.558-6.2 15.008-6.204 5.451.004 10.863 2.063 15.005 6.205 4.142 4.142 6.201 9.554 6.205 15.005-.004 5.45-2.063 10.866-6.205 15.008l-56.429 56.43c-4.142 4.141-9.558 6.2-15.008 6.204-5.448-.004-10.863-2.066-15.005-6.205-4.139-4.142-6.201-9.557-6.205-15.008zM28.284 113c7.233.004 14.499-2.763 20.01-8.277l56.432-56.43c5.511-5.51 8.278-12.776 8.274-20.01.004-7.23-2.763-14.498-8.274-20.01-5.51-5.51-12.78-8.277-20.01-8.273-7.233-.004-14.499 2.763-20.01 8.274L8.277 64.706C2.763 70.214-.003 77.483 0 84.713c-.004 7.233 2.763 14.499 8.277 20.01l2.5-2.5-2.5 2.5c5.511 5.514 12.777 8.28 20.007 8.277z"/>
        <path d="M24.5 78h28c1.932 0 3.5-1.568 3.5-3.5S54.432 71 52.5 71h-28a3.501 3.501 0 0 0-3.5 3.5c0 1.932 1.568 3.5 3.5 3.5M45.5 56h28c1.932 0 3.5-1.568 3.5-3.5S75.432 49 73.5 49h-28a3.501 3.501 0 0 0-3.5 3.5c0 1.932 1.568 3.5 3.5 3.5M67.5 35h28c1.932 0 3.5-1.568 3.5-3.5S97.432 28 95.5 28h-28a3.501 3.501 0 0 0-3.5 3.5c0 1.932 1.568 3.5 3.5 3.5"/>
    </g>
</svg>
