<svg xmlns="http://www.w3.org/2000/svg" width="909" height="786" viewBox="0 0 909 786">
    <g fill="none" fill-rule="evenodd">
        <g fill="#D86C6B">
            <path d="M36.279 20.402l-13.821 13.82c-.258.257-.584.38-.922.381a1.289 1.289 0 0 1-.92-.382l-12.9-12.898a1.3 1.3 0 0 1 0-1.843l-.922-.92.921.92L21.536 5.66a10.385 10.385 0 0 1 7.372-3.054 10.385 10.385 0 0 1 7.371 3.053 10.385 10.385 0 0 1 3.053 7.371 10.385 10.385 0 0 1-3.053 7.372zM6.673 38.95c-.257.257-.584.38-.921.382a1.294 1.294 0 0 1-.922-.382l-1.842-1.842a1.294 1.294 0 0 1-.382-.922c.001-.338.125-.664.382-.922l-.921-.921.92.92 7.493-7.49 3.685 3.685-7.492 7.492zM38.12 3.817A12.994 12.994 0 0 0 28.908 0a12.994 12.994 0 0 0-9.214 3.817L5.873 17.637a3.906 3.906 0 0 0 0 5.528l2.763 2.764-7.49 7.492A3.904 3.904 0 0 0 0 36.186a3.903 3.903 0 0 0 1.145 2.764l1.843 1.843a3.906 3.906 0 0 0 5.529 0l7.49-7.493 2.766 2.765a3.905 3.905 0 0 0 2.763 1.144 3.901 3.901 0 0 0 2.764-1.144l13.821-13.821a12.994 12.994 0 0 0 3.817-9.214 12.994 12.994 0 0 0-3.817-9.213z"/>
            <path d="M31.896 13.412L21.47 23.836a1.302 1.302 0 0 0 0 1.843c.509.51 1.333.51 1.843 0l10.424-10.424c.51-.51.51-1.335 0-1.843a1.302 1.302 0 0 0-1.842 0M28.526 8.2a1.302 1.302 0 0 0-1.843 0L16.26 18.624a1.302 1.302 0 0 0 0 1.843c.508.51 1.333.51 1.843 0l10.424-10.425c.51-.509.51-1.334 0-1.842"/>
        </g>
        <path fill="#F1A317" d="M869.756 146.326a20.54 20.54 0 0 1 2.077-3.478l.758.757c.02.024.03.057.053.079l8.05 8.008.725.726a33.843 33.843 0 0 0-3.01 2.16 1.208 1.208 0 0 1-1.606-.088l-.234-.234c-.022-.022-.053-.031-.076-.052l-5.615-5.63-.884-.881a1.202 1.202 0 0 1-.354-.854l.116-.513-1.172-.549 1.172.55zm2.92-8.238c4.043-3.759 9.416-6.11 15.324-6.24 5.908.13 11.28 2.481 15.324 6.24.287.269.428.621.428.982-.001.338-.123.66-.38.918l-.007.008-1.838 1.834c-.022.022-.03.053-.051.076l-7.997 7.957-2.684 2.679c-.229.229-.538.353-.856.353l-.35-.198c-.477-.143-.961-.447-1.456-.447h-.268c-.493 0-.977.304-1.454.447l-.35.125c-.318-.001-.627-.088-.856-.318l-.768-.746-1.915-1.903-7.998-7.953c-.02-.023-.03-.052-.051-.074l-1.838-1.833-.008-.008a1.282 1.282 0 0 1-.38-.917c.001-.36.142-.713.43-.982zm33.568 8.238l.116.513a1.209 1.209 0 0 1-.355.854l-.88.88-5.618 5.631c-.023.021-.054.03-.076.052l-.234.234a1.203 1.203 0 0 1-1.606.088 33.678 33.678 0 0 0-3.012-2.16l.729-.727 8.048-8.007c.023-.022.032-.055.053-.08l.758-.756a20.489 20.489 0 0 1 2.077 3.478zm-.891 10.94c-.28-.088-.863-.42-1.552-.951a43.28 43.28 0 0 1-1.52-1.23l3.046-3.053c.175.988.273 2.003.273 3.06.006 1.15-.128 1.89-.247 2.175zm-33.46-.724c-.397.286-.742.5-1 .624l-.247.1c-.12-.287-.252-1.029-.246-2.174 0-1.057.098-2.072.273-3.06l3.046 3.053c-.68.57-1.3 1.077-1.827 1.457zm-3.38-6.674a19.66 19.66 0 0 0-.701 5.224c.006 1.356.11 2.352.46 3.206.176.423.44.831.844 1.14.4.31.923.46 1.377.454 1.157-.043 1.963-.602 2.915-1.257.694-.501 1.449-1.13 2.238-1.793.611.382 1.31.585 2.009.584a3.802 3.802 0 0 0 2.368-.828c1.047-.835 2.157-1.64 3.28-2.302l.072.072a3.801 3.801 0 0 0 3.785.948c.298-.09.573-.14.84-.177.267.037.54.087.84.177a3.816 3.816 0 0 0 3.785-.948l.073-.072c1.122.661 2.232 1.467 3.279 2.302a3.807 3.807 0 0 0 2.368.828 3.788 3.788 0 0 0 2.009-.584c.79.664 1.544 1.292 2.238 1.793.95.655 1.758 1.214 2.915 1.257.454.006.977-.144 1.377-.454.608-.474.889-1.12 1.064-1.81.17-.703.239-1.52.24-2.536 0-1.81-.242-3.547-.701-5.224l.35-.349a3.79 3.79 0 0 0 .75-4.292l-1.171.55 1.17-.55a23.173 23.173 0 0 0-2.699-4.375 3.87 3.87 0 0 0 .453-1.782c.002-1.046-.423-2.233-1.252-3.003-4.488-4.178-10.483-7.067-17.06-7.067h-.055c-6.58 0-12.573 2.89-17.062 7.067-.828.77-1.254 1.89-1.253 2.937a4.006 4.006 0 0 0 .455 1.816 23.221 23.221 0 0 0-2.7 4.392 3.799 3.799 0 0 0 .75 4.304l.35.352z"/>
        <g fill="#D86C6B">
            <path d="M158.677 32.626c-2.325 2.343-5.522 3.79-9.052 3.79-1.663 0-3.21-.304-4.646-.887a1.269 1.269 0 0 0-.958 0 12.237 12.237 0 0 1-4.646.888c-3.53 0-6.727-1.448-9.052-3.791a12.92 12.92 0 0 1-3.76-9.126 12.92 12.92 0 0 1 3.76-9.126c2.325-2.343 5.522-3.79 9.052-3.79 1.663 0 3.21.304 4.646.887.309.125.65.125.958 0a12.237 12.237 0 0 1 4.646-.888c3.53 0 6.727 1.448 9.052 3.791a12.92 12.92 0 0 1 3.76 9.126 12.92 12.92 0 0 1-3.76 9.126zM149.625 8c-1.798 0-3.516.318-5.125.908A14.818 14.818 0 0 0 139.375 8c-8.475.004-15.371 6.956-15.375 15.5.004 8.544 6.9 15.496 15.375 15.5 1.798 0 3.516-.319 5.125-.908 1.61.589 3.327.908 5.125.908 8.475-.004 15.371-6.956 15.375-15.5-.004-8.544-6.9-15.496-15.375-15.5z"/>
            <path d="M153.143 30.377a15.48 15.48 0 0 0 1.607-6.877 15.48 15.48 0 0 0-1.607-6.877 7.748 7.748 0 0 1 4.17 6.877 7.75 7.75 0 0 1-4.17 6.877zm-2.785-17.18a1.282 1.282 0 0 0-1.23.693 1.305 1.305 0 0 0 .147 1.414 12.901 12.901 0 0 1 2.912 8.196 12.901 12.901 0 0 1-2.912 8.196 1.305 1.305 0 0 0-.147 1.414c.234.456.72.731 1.23.694 5.304-.385 9.513-4.838 9.517-10.304-.004-5.466-4.213-9.919-9.517-10.304zM131.688 23.5a7.748 7.748 0 0 1 4.169-6.877 15.48 15.48 0 0 0-1.607 6.877 15.48 15.48 0 0 0 1.607 6.877 7.75 7.75 0 0 1-4.17-6.877zm5.125 0a12.901 12.901 0 0 1 2.912-8.196c.324-.397.382-.957.147-1.414a1.282 1.282 0 0 0-1.23-.694c-5.304.385-9.513 4.838-9.517 10.304.004 5.466 4.213 9.919 9.517 10.304.51.037.996-.238 1.23-.694a1.305 1.305 0 0 0-.147-1.414 12.901 12.901 0 0 1-2.912-8.196z"/>
            <path d="M144.5 29.247a7.692 7.692 0 0 1-2.563-5.747c0-2.278.984-4.332 2.563-5.747a7.692 7.692 0 0 1 2.563 5.747 7.692 7.692 0 0 1-2.563 5.747zm.729-14.197a1.272 1.272 0 0 0-1.458 0 10.29 10.29 0 0 0-4.396 8.45 10.29 10.29 0 0 0 4.396 8.45c.438.306 1.02.306 1.458 0a10.29 10.29 0 0 0 4.396-8.45 10.29 10.29 0 0 0-4.396-8.45z"/>
        </g>
        <path fill="#F8B337" d="M251.844 34.2h33.312c.707.001 1.28.582 1.281 1.3-.003 2.153-1.722 3.896-3.843 3.9h-28.188c-2.123-.004-3.84-1.747-3.844-3.9a1.293 1.293 0 0 1 1.282-1.3zm0-5.2h2.032l2.562 2.6h-4.594a1.293 1.293 0 0 1-1.281-1.3 1.293 1.293 0 0 1 1.28-1.3zm12.282 2.6h-4.064l-2.563-2.6h4.064l2.563 2.6zm7.687 0h-4.064l-2.562-2.6h4.064l2.562 2.6zm7.688 0h-4.064l-2.563-2.6h4.064l2.563 2.6zm6.937-1.3a1.293 1.293 0 0 1-1.282 1.3h-2.032l-2.562-2.6h4.594c.707.001 1.28.582 1.281 1.3zm-34.594-6.5h33.312c.707.001 1.28.582 1.281 1.3a1.293 1.293 0 0 1-1.28 1.3h-33.313a1.293 1.293 0 0 1-1.281-1.3 1.293 1.293 0 0 1 1.28-1.3zm4.35-13.883c3.189-2.73 7.51-4.317 12.306-4.317 4.796 0 9.117 1.587 12.305 4.317 3.179 2.73 5.25 6.576 5.585 11.277l-.011.006H250.62l-.011-.005c.334-4.702 2.406-8.548 5.585-11.278zM254.407 42h28.188c3.539-.001 6.405-2.91 6.406-6.5a3.9 3.9 0 0 0-.998-2.6 3.9 3.9 0 0 0 .998-2.6 3.9 3.9 0 0 0-.998-2.6 3.9 3.9 0 0 0 .32-4.806 2.594 2.594 0 0 0 .634-1.67l-.006-.173c-.364-5.406-2.802-9.968-6.492-13.12C278.769 4.77 273.85 3 268.5 3s-10.27 1.772-13.958 4.93c-3.69 3.153-6.128 7.715-6.492 13.118l-.006.174c.007.655.252 1.227.634 1.672a3.9 3.9 0 0 0 .32 4.806 3.9 3.9 0 0 0-.998 2.6 3.9 3.9 0 0 0 .998 2.6 3.9 3.9 0 0 0-.998 2.6c.001 3.59 2.867 6.499 6.406 6.5z"/>
        <g fill="#F8B337">
            <path d="M376.703 21.981c1.884-2.427 2.79-5.282 3.511-8.006 1.748-6.646 7.849-11.416 14.849-11.412 1.1 0 2.225.117 3.363.365 5.902 1.274 10.646 6.159 11.741 12.096.183.987.27 1.96.27 2.914.003 7.427-5.328 13.743-12.49 15.094-2.532.482-4.656 1.812-6.522 3.238a10.496 10.496 0 0 1-6.413 2.167c-2.889 0-5.497-1.153-7.392-3.013-1.894-1.863-3.056-4.415-3.057-7.236a10.065 10.065 0 0 1 2.14-6.207zM385.013 41c2.998 0 5.77-1.008 7.971-2.696 1.726-1.326 3.524-2.397 5.438-2.754 8.372-1.583 14.575-8.94 14.578-17.612 0-1.111-.102-2.241-.314-3.382C411.382 7.58 405.904 1.94 398.97.423A18.402 18.402 0 0 0 395.062 0c-8.174.004-15.275 5.547-17.326 13.322-.69 2.636-1.533 5.138-3.054 7.084A12.622 12.622 0 0 0 372 28.188C372.005 35.273 377.85 41 385.012 41z"/>
            <path d="M393.781 10.25a6.427 6.427 0 0 1 6.406 6.406 6.427 6.427 0 0 1-6.406 6.407 6.427 6.427 0 0 1-6.406-6.407 6.427 6.427 0 0 1 6.406-6.406zm0 15.375c4.95-.003 8.966-4.02 8.969-8.969-.003-4.95-4.02-8.966-8.969-8.968-4.95.002-8.966 4.019-8.969 8.968.003 4.95 4.02 8.966 8.97 8.969z"/>
            <path d="M393.781 14.094a2.573 2.573 0 0 1 2.563 2.562 1.282 1.282 0 0 0 2.562 0 5.13 5.13 0 0 0-5.125-5.125 1.282 1.282 0 0 0 0 2.563"/>
        </g>
        <g fill="#F8B337">
            <path d="M500.703 21.981c1.884-2.427 2.79-5.282 3.511-8.006 1.748-6.646 7.849-11.416 14.849-11.412 1.1 0 2.225.117 3.363.365 5.902 1.274 10.646 6.159 11.741 12.096.183.987.27 1.96.27 2.914.003 7.427-5.328 13.743-12.49 15.094-2.532.482-4.656 1.812-6.522 3.238a10.496 10.496 0 0 1-6.413 2.167c-2.889 0-5.497-1.153-7.392-3.013-1.894-1.863-3.056-4.415-3.057-7.236a10.065 10.065 0 0 1 2.14-6.207zM509.013 41c2.998 0 5.77-1.008 7.971-2.696 1.726-1.326 3.524-2.397 5.438-2.754 8.372-1.583 14.575-8.94 14.578-17.612 0-1.111-.102-2.241-.314-3.382C535.382 7.58 529.904 1.94 522.97.423A18.402 18.402 0 0 0 519.062 0c-8.174.004-15.275 5.547-17.326 13.322-.69 2.636-1.533 5.138-3.054 7.084A12.622 12.622 0 0 0 496 28.188C496.005 35.273 501.85 41 509.012 41z"/>
            <path d="M504.747 25.13c2.454-3.154 3.58-6.658 4.423-9.849 1.176-4.467 5.244-7.718 9.892-7.718.751 0 1.517.125 2.273.125h.003c3.907 1.28 7.067 4.223 7.79 8.15.12.643.177 1.345.177 1.975 0 4.864-3.433 9.235-8.308 10.152-3.858.731-6.828 2.798-8.692 4.223a5.355 5.355 0 0 1-3.293 1.117 5.407 5.407 0 0 1-3.777-1.513c-.963-.938-1.546-2.203-1.548-3.607a4.91 4.91 0 0 1 1.06-3.055zm4.265 10.745a7.914 7.914 0 0 0 4.854-1.639c1.744-1.341 4.387-3.12 7.607-3.722 6.126-1.163 10.394-6.573 10.394-12.64 0-.785-.071-1.582-.22-2.38-.933-4.969-4.825-8.98-9.764-10.062a13.173 13.173 0 0 0-2.82-.307c-5.808 0-10.894 3.903-12.371 9.503-.815 3.096-1.851 6.213-3.967 8.928a7.48 7.48 0 0 0-1.6 4.631c.008 4.273 3.566 7.68 7.887 7.688zM521.883 5.304"/>
            <path d="M519.063 12.813a2.573 2.573 0 0 1 2.562 2.562 2.573 2.573 0 0 1-2.563 2.563 2.573 2.573 0 0 1-2.562-2.563 2.573 2.573 0 0 1 2.563-2.563zm0 7.687a5.13 5.13 0 0 0 5.125-5.125 5.13 5.13 0 0 0-5.125-5.125 5.13 5.13 0 0 0-5.125 5.125 5.13 5.13 0 0 0 5.125 5.125z"/>
        </g>
        <g fill="#F8B337">
            <path d="M622.684 21.248a1.28 1.28 0 0 1 1.16-.748 1.298 1.298 0 0 1 1.281 1.281v2.563a3.847 3.847 0 0 0 3.844 3.843 3.847 3.847 0 0 0 3.843-3.843v-1.75c0 1.637 1.587 3.06 2.915 4.055a7.517 7.517 0 0 0 4.555 1.538c.537 0 .218-.062 1.5-.15v-.158c2.562-.503 4.404-2.123 5.393-4.514l.2-.004c-.001.001.128.003.128.004.322-.78.374-1.614.417-2.47.225.232.267.544.267.886v5.125a3.847 3.847 0 0 0 3.844 3.844 3.847 3.847 0 0 0 3.844-3.844v-5.125c0-.695.752-1.28 1.448-1.281.369-.003.787.165 1.017.414-.07 3.053-.845 5.912-2.283 8.401l.008.046c-3.09 5.424-8.909 9.078-15.575 9.076-9.015.004-16.473-6.676-17.715-15.326l-.002-.028a15.95 15.95 0 0 1-.176-1.71l.087-.125zm22.941-.748a4.9 4.9 0 0 1-.364 1.894l-.005.011a5.15 5.15 0 0 1-3.72 3.115 5.803 5.803 0 0 1-1.036.105 5.134 5.134 0 0 1-3.071-1.022l-.004-.003a5.136 5.136 0 0 1-1.942-3.034l-.002-.02a5.687 5.687 0 0 1-.106-1.046 5.135 5.135 0 0 1 5.125-5.125 5.135 5.135 0 0 1 5.125 5.125zM627.818 7.818A17.87 17.87 0 0 1 640.5 2.563c4.955 0 9.43 2.006 12.682 5.255a17.882 17.882 0 0 1 5.065 10.204 5.759 5.759 0 0 0-.924-.084c-2.123.005-4.01 1.72-4.01 3.843v5.125c0 .696-.586 1.28-1.282 1.282a1.298 1.298 0 0 1-1.281-1.282v-5.125c0-1.945-1.284-3.53-3.157-3.79-1.042-3.012-3.812-5.177-7.176-5.178-3.387 0-6.214 2.194-7.24 5.235-1.698.4-2.927 1.913-2.927 3.733v2.563c0 .695-.586 1.28-1.281 1.281a1.298 1.298 0 0 1-1.282-1.281V21.78a3.847 3.847 0 0 0-3.843-3.843c-.385 0-.755.06-1.102.165a17.88 17.88 0 0 1 5.076-10.285zm-7.575 15.657c.002.004.002.008.003.013l.003.015c1.436 9.889 9.954 17.493 20.251 17.497 7.626-.001 14.299-4.183 17.82-10.386l.015-.051C660.049 27.585 661 24.143 661 20.5 660.999 9.183 651.817.001 640.5 0c-11.317.001-20.499 9.183-20.5 20.5 0 1.007.082 1.994.245 2.975h-.002z"/>
            <path d="M635.886 26.648h-.002l.003.001h-.001M629.875 15l2.562-2.563a1.28 1.28 0 0 0 0-1.812 1.28 1.28 0 0 0-1.812 0l-2.562 2.563A1.28 1.28 0 1 0 629.875 15M640.875 9.875c.5.5 1.311.5 1.812 0a1.28 1.28 0 0 0 0-1.812L640.125 5.5a1.28 1.28 0 1 0-1.812 1.812l2.562 2.563M649.469 12.813h2.562a1.282 1.282 0 0 0 0-2.563h-2.562a1.282 1.282 0 0 0 0 2.563"/>
        </g>
        <g fill="#F1A317">
            <path d="M745.974 9.415c4.91-4.533 11.213-6.801 17.526-6.801 6.313 0 12.615 2.268 17.525 6.8.275.256.41.593.412.942a1.277 1.277 0 0 1-1.282 1.282 1.274 1.274 0 0 1-.869-.341c-.077-.07-.16-.13-.238-.2-.027-.03-.064-.05-.095-.078-4.38-3.894-9.918-5.853-15.453-5.853s-11.071 1.959-15.453 5.851c-.03.03-.068.05-.095.081-.078.07-.163.128-.24.2a1.278 1.278 0 0 1-1.81-.073 1.27 1.27 0 0 1-.34-.867c.002-.351.136-.688.412-.943zm25.185 14.348c-.752-.431-1.608-.7-2.534-.7a5.13 5.13 0 0 0-5.125 5.125c.001 2.206 1.404 4.07 3.36 4.791l-2.166 4.645-.017.037c-.238.54-.67.762-1.177.776-.506-.014-.94-.235-1.177-.776l-.017-.037-11.81-25.319A20.692 20.692 0 0 1 763.5 7.73a20.694 20.694 0 0 1 13.003 4.576l-5.344 11.458zm-3.21 6.883a2.568 2.568 0 0 1-1.886-2.459 2.573 2.573 0 0 1 2.562-2.562c.542 0 1.034.18 1.448.466l-2.124 4.555zm-21.104-16.445c.527 0 1.054-.256 1.55-.476l11.588 24.712h.003c.657 1.282 2.12 2.308 3.514 2.294 1.394.014 2.857-1.012 3.514-2.294h.003l11.589-24.712c.494.219 1.021.408 1.549.407 1.031.003 2.07-.384 2.825-1.202a3.798 3.798 0 0 0 1.02-2.59 3.825 3.825 0 0 0-1.236-2.816C777.358 2.534 770.424.046 763.5.046c-6.924 0-13.858 2.495-19.264 7.484A3.84 3.84 0 0 0 743 10.356a3.84 3.84 0 0 0 1.019 2.606 3.84 3.84 0 0 0 2.826 1.24z"/>
            <path d="M763.5 15.375a2.573 2.573 0 0 1-2.563 2.563 2.573 2.573 0 0 1-2.562-2.563 2.573 2.573 0 0 1 2.563-2.563 2.573 2.573 0 0 1 2.562 2.563zm-7.688 0a5.13 5.13 0 0 0 5.125 5.125 5.13 5.13 0 0 0 5.125-5.125 5.13 5.13 0 0 0-5.125-5.125 5.13 5.13 0 0 0-5.125 5.125z"/>
        </g>
        <path fill="#F1A317" d="M896.647 34.236c-.06-.009-.115-.036-.178-.036H878.53c-.063 0-.118.027-.178.036a18.26 18.26 0 0 1-8.79-15.648v.012c12.812 0 23.23-.013 35.875-.013a18.258 18.258 0 0 1-8.791 15.65zm-1.46 3.864c0 .706-.585 1.299-1.28 1.3h-12.813c-.696-.001-1.282-.594-1.282-1.3v-1.3h15.375v1.3zM889.92 16h-2.657c-.532-1.51-1.936-2.596-3.607-2.6-1.67.004-3.075 1.09-3.606 2.6h-2.67a6.54 6.54 0 0 1 1.752-3.289 6.335 6.335 0 0 1 4.524-1.911 6.45 6.45 0 0 1 3.526 1.062A6.605 6.605 0 0 1 889.92 16zm-14.416-6.972c2.09-2.12 4.966-3.428 8.152-3.428 2.887 0 5.531 1.075 7.56 2.876l.011.009c1.111.964 2.02 2.17 2.698 3.519-.002.034-.019.062-.019.096 0 .417.205.77.506 1.009.344.919.59 1.882.701 2.891h-2.588a9.202 9.202 0 0 0-3.93-6.308l-.016-.01a8.976 8.976 0 0 0-4.923-1.482c-4.505.005-8.236 3.4-8.865 7.8h-2.59a11.72 11.72 0 0 1 3.303-6.972zM897.75 16h-.067a15.152 15.152 0 0 0-.137-1.009c.131.31.204.652.204 1.009zm-2.563-7.8c2.122 0 4.036.872 5.433 2.288A7.822 7.822 0 0 1 902.875 16h-2.563c-.002-2.501-1.743-4.586-4.062-5.084-.47-.952-1.04-1.841-1.698-2.656.211-.018.416-.06.636-.06zm10.25 7.8c-.002-5.738-4.594-10.397-10.25-10.4-.995 0-1.96.155-2.875.438A13.866 13.866 0 0 0 883.656 3c-7.349.001-13.379 5.715-14.028 13h-.145A2.493 2.493 0 0 0 867 18.497v.103c0 7.677 3.844 14.39 10.25 17.99v1.51c0 2.154 1.72 3.895 3.844 3.9h12.812c2.123-.005 3.844-1.746 3.844-3.9v-1.51c6.406-3.6 10.249-10.313 10.25-17.99-.001-1.436-1.147-2.599-2.563-2.6z"/>
        <g fill="#D86C6B">
            <path d="M2.563 154.754a7.66 7.66 0 0 1 2.247-5.435l20.44-20.44a7.655 7.655 0 0 1 5.436-2.247 7.652 7.652 0 0 1 5.435 2.247 7.652 7.652 0 0 1 2.247 5.435 7.655 7.655 0 0 1-2.247 5.436l-20.44 20.44a7.655 7.655 0 0 1-5.436 2.247 7.66 7.66 0 0 1-5.435-2.247 7.66 7.66 0 0 1-2.247-5.436zM10.245 165c2.62.001 5.252-1 7.248-2.998l20.441-20.44a10.226 10.226 0 0 0 2.997-7.248 10.228 10.228 0 0 0-10.245-10.245c-2.62-.001-5.252 1-7.248 2.997l-20.44 20.441A10.219 10.219 0 0 0 0 154.754c-.001 2.62 1 5.252 2.998 7.248l.906-.906-.906.906A10.22 10.22 0 0 0 10.245 165z"/>
            <path d="M8.969 152.188h10.25a1.282 1.282 0 0 0 0-2.563H8.969a1.282 1.282 0 0 0 0 2.563M16.656 144.5h10.25a1.282 1.282 0 0 0 0-2.563h-10.25a1.282 1.282 0 0 0 0 2.563M24.344 136.813h10.25a1.282 1.282 0 0 0 0-2.563h-10.25a1.282 1.282 0 0 0 0 2.563"/>
        </g>
        <g fill="#D86C6B">
            <path d="M127.682 143.198l15.516-15.516a3.83 3.83 0 0 1 2.722-1.12c.99.002 1.968.373 2.715 1.12l.905-.906-.905.906.905.906-20.952 20.952-.906-.905a3.826 3.826 0 0 1-1.12-2.72 3.825 3.825 0 0 1 1.12-2.717zm24.576-13.704l.906-.906c1-1 2.306-1.496 3.624-1.498a5.1 5.1 0 0 1 3.624 1.498 5.1 5.1 0 0 1 1.498 3.624 5.103 5.103 0 0 1-1.498 3.624l-24.576 24.576c-1 1-2.306 1.496-3.624 1.498a5.1 5.1 0 0 1-3.624-1.498 5.1 5.1 0 0 1-1.498-3.624 5.101 5.101 0 0 1 1.498-3.624l23.67-23.67zm10.18 13.585a3.835 3.835 0 0 1-1.12 2.723l-15.516 15.516a3.825 3.825 0 0 1-2.718 1.12 3.826 3.826 0 0 1-2.719-1.12l-.905-.906 20.952-20.952.906.905a3.826 3.826 0 0 1 1.12 2.714zm-35.662 8.273a7.667 7.667 0 0 0-2.248 5.436 7.667 7.667 0 0 0 2.248 5.436l.906-.906-.906.906a7.667 7.667 0 0 0 5.436 2.248 7.667 7.667 0 0 0 5.436-2.248l.906.905a6.392 6.392 0 0 0 4.53 1.871 6.39 6.39 0 0 0 4.53-1.87l15.515-15.517-.905-.905.905.905A6.395 6.395 0 0 0 165 143.08a6.384 6.384 0 0 0-1.87-4.525l-.906-.906a7.667 7.667 0 0 0 2.248-5.436 7.667 7.667 0 0 0-2.248-5.436 7.667 7.667 0 0 0-5.436-2.248 7.667 7.667 0 0 0-5.436 2.248l-.906-.905A6.39 6.39 0 0 0 145.92 124a6.392 6.392 0 0 0-4.533 1.87l-15.516 15.517a6.39 6.39 0 0 0-1.871 4.529 6.395 6.395 0 0 0 1.87 4.53l.906.906z"/>
            <path d="M131.945 158.489c.707 0 1.281-.574 1.281-1.282 0-.142-.038-.272-.08-.4l.015-.004-.087-.517c0-.417.174-.81.469-1.105a1.568 1.568 0 0 1 1.105-.47l.516.088c.44.146.889.217 1.326.217a4.159 4.159 0 0 0 4.136-4.137 4.169 4.169 0 0 0-.217-1.324l-.087-.517c0-.418.174-.81.469-1.106a1.568 1.568 0 0 1 1.106-.468l.515.087c.44.146.889.217 1.326.217a4.159 4.159 0 0 0 4.136-4.137c0-.437-.07-.885-.218-1.325h.001l-.087-.516c0-.416.174-.81.469-1.104.296-.296.688-.47 1.106-.47l.515.087c.44.147.889.217 1.324.217a4.16 4.16 0 0 0 4.138-4.137c0-.437-.07-.885-.218-1.325l-.086-.515c0-.417.174-.81.469-1.105a1.568 1.568 0 0 1 1.106-.47l.515.087.405.066c.707 0 1.28-.574 1.28-1.281 0-.566-.372-1.031-.88-1.2l.004-.016a4.17 4.17 0 0 0-1.324-.218 4.16 4.16 0 0 0-4.138 4.137c0 .437.07.886.218 1.325l.086.515c0 .418-.174.81-.469 1.106a1.568 1.568 0 0 1-1.106.469l-.515-.086v-.001a4.155 4.155 0 0 0-1.324-.217 4.159 4.159 0 0 0-4.138 4.136c0 .437.07.885.218 1.326l.086.515c.001.418-.174.81-.468 1.106-.297.295-.689.469-1.105.469l-.517-.086v-.001a4.207 4.207 0 0 0-1.324-.218 4.16 4.16 0 0 0-4.138 4.137c0 .437.072.886.218 1.326l.087.515c0 .418-.174.81-.469 1.106a1.568 1.568 0 0 1-1.105.469l-.517-.087a4.207 4.207 0 0 0-1.325-.218 4.16 4.16 0 0 0-4.137 4.137c0 .437.072.886.218 1.326a1.28 1.28 0 0 0 1.216.877"/>
        </g>
        <path fill="#F8B337" d="M282.715 143.503l-1.394 6.122h-24.633l-1.393-6.122-.032-.282c-.003-.496.316-.932.75-1.126l.373-.137.196-.02h3.403c.523 2.504 2.54 4.612 5.097 5.125h7.846c.852-.17 1.648-.63 2.348-1.1.34-.228.652-.49.941-.778l.003.003c.004-.005.006-.01.012-.014l.013-.012-.002-.002a6.227 6.227 0 0 0 1.785-3.222h3.4l.195.02.081.03.287.105c.436.192.758.631.755 1.128l-.034.291.003-.009zm-2.547 11.247h-22.325l-.576-2.563h23.476l-.575 2.563zm-1.521 6.686a1.302 1.302 0 0 1-1.276 1.001h-16.732a1.302 1.302 0 0 1-1.277-1.001l-.94-4.124h21.165l-.94 4.124zm-21.416-31.03c.001-.707.59-1.28 1.313-1.281.72.001 1.306.574 1.307 1.281v8.969h-2.62v-8.969zm5.23 2.561c.003-.707.592-1.278 1.313-1.28.721.002 1.307.574 1.308 1.282v11.29c-1.512-.535-2.617-1.947-2.62-3.6v-7.692zm5.231-5.123c.002-.707.591-1.28 1.313-1.281.72 0 1.307.573 1.308 1.28V144.5h-2.62v-16.656zm5.231 5.125c.001-.707.591-1.28 1.313-1.281.72 0 1.306.574 1.308 1.28v7.688a3.687 3.687 0 0 1-1.148 2.695l-.025.025a3.799 3.799 0 0 1-1.448.89v-11.297zm5.23-2.563c.002-.707.592-1.28 1.314-1.281.72.001 1.306.574 1.307 1.281v8.969h-2.62v-8.969zm5.232 9.528v-9.528c-.002-2.123-1.751-3.844-3.918-3.844a3.896 3.896 0 0 0-3.772 2.845 3.972 3.972 0 0 0-1.459-.282c-.462 0-.897.092-1.308.236v-1.517c-.001-2.123-1.756-3.844-3.923-3.844-2.168 0-3.923 1.72-3.923 3.844v1.517a3.95 3.95 0 0 0-1.308-.236c-.516 0-1.008.104-1.459.282a3.898 3.898 0 0 0-3.771-2.844c-2.168 0-3.923 1.72-3.923 3.843v9.526c-1.192.668-1.971 1.9-1.974 3.29 0 .28.032.56.094.839l1.632 7.168 1.14 5.078 1.297 5.687c.401 1.757 1.991 3.006 3.829 3.006h16.732c1.837 0 3.428-1.25 3.828-3.006l1.296-5.683 1.143-5.095 1.63-7.155.001-.008c.06-.274.093-.554.092-.832-.003-1.39-.788-2.621-1.976-3.287zM384.813 130.937l3.313 3.313-5.876 5.876-3.313-3.314 5.875-5.875zm0 0l-.906-.906.906.906zm12.812 12.812l3.313 3.314-5.875 5.875-3.314-3.313 5.876-5.876zm0 0l-.906-.906.906.906zm-23.438-9.874l2.938-2.938 2.032 2.032-2.032 2.032a2.56 2.56 0 0 0 0 3.623l3.313 3.314a2.56 2.56 0 0 0 3.624 0l2.032-2.033 2.032 2.033-2.938 2.937a1.28 1.28 0 0 0 0 1.812 1.28 1.28 0 0 0 1.812 0l2.937-2.938 2.033 2.032-2.033 2.032a2.56 2.56 0 0 0 0 3.624l3.314 3.313a2.56 2.56 0 0 0 3.623 0l2.032-2.032 2.344 2.343a6.39 6.39 0 0 0-1.062 3.533 6.397 6.397 0 0 0 1.875 4.53 6.397 6.397 0 0 0 4.53 1.876 6.392 6.392 0 0 0 4.53-1.876 6.393 6.393 0 0 0 1.877-4.53 6.393 6.393 0 0 0-1.877-4.53 1.282 1.282 0 0 0-1.812 1.812 3.823 3.823 0 0 1 1.127 2.718 3.823 3.823 0 0 1-1.127 2.717 3.823 3.823 0 0 1-2.717 1.126 3.823 3.823 0 0 1-2.718-1.126 3.823 3.823 0 0 1-1.126-2.717 3.823 3.823 0 0 1 1.126-2.718c.239-.24.376-.569.376-.906 0-.338-.137-.667-.376-.907l-3.158-3.157 2.032-2.032a2.56 2.56 0 0 0 0-3.623l-3.313-3.314a2.56 2.56 0 0 0-3.624 0l-2.032 2.033-2.032-2.033 2.938-2.937a1.28 1.28 0 0 0 0-1.812 1.28 1.28 0 0 0-1.812 0l-2.938 2.938-2.032-2.032 2.033-2.032a2.56 2.56 0 0 0 0-3.624l-3.314-3.313a2.56 2.56 0 0 0-3.623 0l-2.032 2.032-2.032-2.032 2.938-2.938a1.28 1.28 0 0 0 0-1.812 1.28 1.28 0 0 0-1.812 0l-2.938 2.938-2.882-2.881a1.28 1.28 0 1 0-1.811 1.811l2.881 2.882-2.938 2.938a1.28 1.28 0 0 0 0 1.812 1.28 1.28 0 0 0 1.812 0z"/>
        <g fill="#F8B337">
            <path d="M534.438 149.625c0 1.41-1.154 2.56-2.563 2.563a2.573 2.573 0 0 1-2.563-2.563 1.282 1.282 0 0 0-2.562 0 2.573 2.573 0 0 1-2.563 2.563 2.573 2.573 0 0 1-2.562-2.563 1.282 1.282 0 0 0-2.563 0 2.573 2.573 0 0 1-2.562 2.563 2.573 2.573 0 0 1-2.563-2.563 1.282 1.282 0 0 0-2.562 0 2.573 2.573 0 0 1-2.563 2.563 2.573 2.573 0 0 1-2.562-2.563 1.282 1.282 0 0 0-2.563 0 2.573 2.573 0 0 1-2.562 2.563 2.572 2.572 0 0 1-2.563-2.563v-3.844c0-.707.574-1.281 1.282-1.281h33.312c.708 0 1.282.574 1.282 1.281v3.844zm0 7.688h-35.875v-3.275c0 .44 1.624.71 2.562.712 1.54-.001 2.905-.694 3.844-1.77.939 1.076 2.303 1.769 3.844 1.77 1.54-.001 2.904-.694 3.843-1.77.94 1.076 2.304 1.769 3.844 1.77 1.54-.001 2.905-.694 3.844-1.77.939 1.076 2.303 1.769 3.843 1.77 1.54-.001 2.905-.694 3.844-1.77.94 1.076 2.304 1.769 3.844 1.77.938-.001 1.281-.272 2.563-.712v3.274zm0 3.843c0 .707-.574 1.28-1.282 1.281h-33.312a1.283 1.283 0 0 1-1.281-1.28v-1.282h35.875v1.281zm-20.5-20.5c0-.707.574-1.281 1.28-1.281h2.563c.708 0 1.282.574 1.282 1.281v1.281h-5.125v-1.28zM537 145.781a3.844 3.844 0 0 0-3.844-3.844h-11.531v-1.28a3.844 3.844 0 0 0-3.844-3.845h-2.562a3.844 3.844 0 0 0-3.844 3.844v1.281h-11.531a3.844 3.844 0 0 0-3.844 3.844v15.375a3.844 3.844 0 0 0 3.844 3.844h33.312a3.844 3.844 0 0 0 3.844-3.844v-15.375z"/>
            <path d="M518.715 130.604c.251.51.358.955.347 1.083a2.573 2.573 0 0 1-2.562 2.563 2.573 2.573 0 0 1-2.563-2.563c-.015-.148.136-.703.46-1.308.472-.923 1.247-2.012 1.897-2.841.073-.094.137-.172.207-.26.376.472.811 1.044 1.22 1.645.39.571.75 1.165.994 1.68zM516.5 124c-.366 0-.71.154-.955.425-.017.022-1 1.116-2.007 2.517-.504.702-1.015 1.477-1.42 2.264-.398.794-.728 1.57-.743 2.482a5.13 5.13 0 0 0 5.125 5.125 5.13 5.13 0 0 0 5.125-5.125c-.015-.911-.345-1.688-.743-2.482-1.21-2.33-3.398-4.736-3.429-4.78a1.274 1.274 0 0 0-.953-.426z"/>
        </g>
        <g fill="#F1A317">
            <path d="M653.133 135.306l-3.112 3.112a10.547 10.547 0 0 0-.826-1.204c-.236-.291-.487-.572-.755-.84a10.534 10.534 0 0 0-2.042-1.58l3.112-3.112c.385-.385.484-.977.246-1.467a2.545 2.545 0 0 1 .497-2.9l-.907-.906.907.906a2.547 2.547 0 0 1 1.81-.752 2.55 2.55 0 0 1 1.813.752 2.48 2.48 0 0 1 .73 1.664 1.28 1.28 0 0 0 1.23 1.229c.601.025 1.19.26 1.664.731.506.506.752 1.155.753 1.813a2.543 2.543 0 0 1-.753 1.81 2.546 2.546 0 0 1-2.9.498 1.284 1.284 0 0 0-1.467.246zm-9.033 23.06a12.7 12.7 0 0 0-.214-.973c-.068-.261-.153-.529-.24-.798a18.108 18.108 0 0 0-1.086-2.636 23.567 23.567 0 0 0-1.307-2.2 27.16 27.16 0 0 0-2.127-2.835 30.26 30.26 0 0 0-1.558-1.677c-2.217-2.218-4.527-3.876-6.713-4.992-1.553-.79-3.033-1.3-4.405-1.54 4.427-3.331 9.243-5.103 13.231-5.092 1.502 0 2.88.241 4.089.713a8.39 8.39 0 0 1 2.223 1.279 8.226 8.226 0 0 1 2.487 3.431c.47 1.207.71 2.587.71 4.088.012 3.989-1.758 8.805-5.09 13.232zm-2.435 2.19c-.076.6-.268.99-.473 1.187-.253.261-.807.51-1.743.51-1.214.005-2.955-.44-4.873-1.425-1.922-.98-4.029-2.483-6.067-4.521-2.039-2.039-3.542-4.146-4.522-6.067-.984-1.918-1.43-3.66-1.424-4.875 0-.934.248-1.489.51-1.743.113-.118.298-.229.541-.32.298-.111.687-.19 1.2-.19 1.217-.005 2.958.441 4.876 1.425 1.92.98 4.028 2.483 6.067 4.522 2.038 2.038 3.541 4.146 4.521 6.066.408.795.702 1.547.93 2.255.074.225.145.446.2.658.193.736.298 1.41.295 1.961 0 .207-.017.386-.038.556zm14.028-22.685a5.118 5.118 0 0 0 3.62-8.743 5.015 5.015 0 0 0-2.314-1.311 5.038 5.038 0 0 0-1.311-2.314 5.116 5.116 0 0 0-3.625-1.503 5.117 5.117 0 0 0-5.12 5.122c0 .442.076.88.191 1.311l-3.246 3.247c-1.325-.411-2.737-.555-4.207-.555-5.942.014-12.783 3.687-18.42 8.812h.209c-1.134.913-1.29 2.135-1.29 3.428.004 1.796.502 3.851 1.615 6.04a26.512 26.512 0 0 0 4.902 6.713c2.218 2.217 4.528 3.876 6.713 4.992 2.19 1.114 4.244 1.7 6.04 1.705 1.351 0 2.631-.347 3.555-1.26 5.622-5.638 8.734-12.48 8.748-18.42 0-1.472-.207-2.884-.617-4.207l3.246-3.247c.43.115.869.19 1.311.19z"/>
            <path d="M634.85 155.4s-.026.048-.283.053c-.3.006-.844-.125-1.446-.443-.604-.314-1.272-.798-1.895-1.42-.622-.623-1.108-1.292-1.422-1.897-.318-.602-.448-1.144-.443-1.444.005-.258.056-.28.054-.283l-.906-.907.906.906s.027-.05.284-.054c.3-.005.842.125 1.444.443.605.314 1.274.8 1.896 1.422.623.623 1.109 1.292 1.421 1.895.318.602.449 1.146.443 1.445-.005.258-.056.282-.053.285zm.001-5.435a10.48 10.48 0 0 0-2.524-1.884c-.869-.447-1.74-.728-2.628-.733-.717-.005-1.51.217-2.096.805v-.001c-.588.586-.81 1.38-.805 2.097.005.888.286 1.76.733 2.628a10.48 10.48 0 0 0 1.884 2.524c.797.796 1.658 1.431 2.524 1.882.868.448 1.738.728 2.628.733.717.005 1.51-.215 2.096-.803.586-.586.808-1.38.803-2.097-.005-.887-.284-1.759-.733-2.627-.45-.867-1.086-1.728-1.882-2.524z"/>
        </g>
        <path fill="#F1A317" d="M777.385 134.25h-7.847v-7.688h6.539c.722 0 1.308.575 1.308 1.282v6.406zm-7.847 10.25h7.847v-7.688h-7.847v7.688zm7.847 16.656c0 .707-.586 1.28-1.308 1.281h-26.154c-.722 0-1.308-.574-1.308-1.28v-12.283l6.38 6.251a3.952 3.952 0 0 0 2.774 1.125c1 .003 2.011-.376 2.774-1.125l8.23-8.062h8.612v14.093zm-28.77-16.656h7.847v-7.688h-7.847v7.688zm0-16.656c0-.707.586-1.281 1.308-1.281h6.539v7.687h-7.847v-6.406zm16.459 19.219l-6.38 6.25a1.318 1.318 0 0 1-.925.376 1.318 1.318 0 0 1-.924-.375l-6.38-6.251h14.609zm-5.997-2.563h7.846v-7.688h-7.846v7.688zm0-10.25h7.846v-7.688h-7.846v7.688zm17-10.25h-26.154c-2.167.001-3.923 1.72-3.923 3.844v33.312c0 2.123 1.756 3.844 3.923 3.844h26.154c2.167 0 3.923-1.72 3.923-3.844v-33.312c0-2.123-1.756-3.843-3.923-3.844z"/>
        <g fill="#D86C6B">
            <path d="M37.374 260.677c-.74.848-1.891 1.702-3.364 2.455-.43.219-.697.657-.697 1.14v20.884c0 .696-.586 1.28-1.282 1.281H8.97a1.298 1.298 0 0 1-1.281-1.28v-20.885c0-.483-.268-.921-.697-1.14-1.474-.753-2.626-1.607-3.364-2.455-.743-.856-1.063-1.65-1.064-2.427 0-.817.36-1.675 1.196-2.587 1.243-1.358 3.534-2.682 6.465-3.607 2.93-.932 6.491-1.495 10.276-1.494 5.046-.003 9.697 1.004 12.98 2.539 1.64.763 2.93 1.66 3.76 2.562.837.912 1.196 1.77 1.197 2.587 0 .776-.321 1.57-1.063 2.427zm-5.822-11.063c-3.215-1.022-7.015-1.613-11.052-1.614-5.384.004-10.342 1.047-14.062 2.779-1.86.87-3.418 1.912-4.562 3.147C.738 255.152-.001 256.633 0 258.25c-.001 1.53.665 2.94 1.696 4.113.888 1.012 2.148 1.887 3.429 2.66v20.133A3.844 3.844 0 0 0 8.969 289H32.03a3.844 3.844 0 0 0 3.844-3.844v-20.133c1.281-.773 2.54-1.648 3.429-2.66C40.335 261.189 41 259.78 41 258.25c.001-1.617-.738-3.098-1.876-4.324-1.718-1.85-4.357-3.283-7.572-4.312z"/>
            <path d="M26 256.063l-12.812 12.812a1.28 1.28 0 0 0 0 1.812 1.28 1.28 0 0 0 1.812 0l12.812-12.812a1.28 1.28 0 0 0 0-1.812 1.28 1.28 0 0 0-1.812 0M26 266.313l-12.812 12.812a1.28 1.28 0 0 0 0 1.812 1.28 1.28 0 0 0 1.812 0l12.812-12.812a1.28 1.28 0 0 0 0-1.812 1.28 1.28 0 0 0-1.812 0"/>
        </g>
        <path fill="#D86C6B" d="M152.247 271.063l7.866-7.735a13.89 13.89 0 0 1 3.255 7.735h-11.12zm7.866 10.297l-7.866-7.735h11.121a13.89 13.89 0 0 1-3.255 7.735zm-10.052 5.013v-10.936l7.866 7.735c-2.173 1.782-5.26 2.936-7.866 3.201zm-.96-12.748c-.72 0-1.304-.574-1.304-1.281 0-.708.584-1.282 1.303-1.282.72 0 1.303.574 1.303 1.282 0 .707-.582 1.281-1.303 1.281zm-1.646 12.748c-3.91-.265-5.693-1.42-7.867-3.201l7.867-7.735v10.936zm-11.407-8.225c-.001-.004-.001-.01-.004-.013a14.135 14.135 0 0 1-.925-2.719l-.035-.169a13.638 13.638 0 0 1-.202-1.203c-.01-.086-.025-.17-.034-.256-.005-.053-.004-.11-.01-.163h11.117l-7.867 7.735a14.072 14.072 0 0 1-2.04-3.212zm-1.21-7.171c.011-.112.03-.22.042-.33a13.942 13.942 0 0 1 .241-1.385c.063-.279.137-.554.217-.829.04-.135.077-.274.12-.41.126-.381.264-.758.42-1.126.04-.092.088-.18.13-.271.127-.282.261-.56.407-.832.078-.149.164-.292.248-.437.124-.213.253-.421.388-.626.094-.145.19-.291.29-.432.154-.22.32-.43.488-.64.087-.111.168-.225.26-.331l7.866 7.735h-11.122c.003-.029.002-.058.004-.086zm12.617-12.663v10.937l-7.524-7.735a15.42 15.42 0 0 1 3.505-2.19c.735-.3 1.246-.534 2.037-.712.67-.136 1.982-.242 1.982-.3zm-13.962 7.547c-.12.276-.213.567-.317.852-.083.226-.18.447-.253.677-.068.216-.112.44-.172.658-.085.312-.178.62-.245.939-.05.237-.074.482-.113.722-.138.86-.232 1.737-.232 2.635 0 .6.036 1.191.099 1.776.01.094.031.184.043.279.06.47.129.936.227 1.394-3.392-2.575-5.583-6.599-5.581-11.137.001-3.896 1.602-7.41 4.198-9.965a14.406 14.406 0 0 1 10.135-4.129 14.358 14.358 0 0 1 11.327 5.488c-.465-.096-.94-.165-1.417-.223-.097-.011-.19-.032-.284-.042a17.532 17.532 0 0 0-1.808-.098c-.913 0-1.804.091-2.679.229-.243.038-.494.061-.735.11-.323.065-.637.159-.953.242-.223.058-.451.101-.669.169a16.987 16.987 0 0 0-6.94 4.128l-.001.001h-.001a16.696 16.696 0 0 0-3.63 5.295zm21.691-6.253c1.15.511 2.032 1.148 2.958 1.908l-8.081 7.735v-10.902c1.303.296 5.109 1.258 5.123 1.26zm5.895.958h-.001a16.948 16.948 0 0 0-4.583-3.19c-2.746-5.543-8.517-9.375-15.213-9.376-9.356.001-16.938 7.457-16.94 16.656.002 6.585 3.9 12.258 9.536 14.959a16.71 16.71 0 0 0 3.244 4.505v.001l.002.001A17.028 17.028 0 0 0 149.1 289h.002c4.676 0 8.91-1.864 11.976-4.878l.001-.001v-.001c3.065-3.014 4.96-7.177 4.96-11.776 0-4.6-1.895-8.763-4.96-11.778z"/>
        <path fill="#F8B337" d="M282.594 273.727h-2.032l5.599-5.562c.161.56.277 1.136.277 1.744-.004 2.091-1.74 3.814-3.844 3.818zm1.281 8.91c0 2.09-1.739 3.814-3.844 3.818h-6.406v-10.182h8.969a1.293 1.293 0 0 1 1.281 1.272v5.091zm-10.25-12.201l6.888-6.842c1.566.12 2.984.772 4.041 1.822.127.125.226.274.34.408l-7.956 7.903h-3.313v-3.291zm0-6.89h3.313l-3.313 3.29v-3.29zM271.062 275v11.455h-5.125v-22.91h5.125V275zm-7.687-8.163l-6.937 6.89h-2.032c-1.243-.002-2.344-.612-3.05-1.535l8.706-8.647h3.313v3.292zm0 6.89h-3.313l3.313-3.291v3.291zm0 12.728h-6.406c-2.105 0-3.844-1.728-3.844-3.819v-5.09c0-.692.753-1.272 1.45-1.273h8.8v10.182zm-10.93-21.039a6.392 6.392 0 0 1 3.933-1.81l-5.755 5.716a6.313 6.313 0 0 1 1.823-3.906zM280.032 261H256.97c-4.942.005-8.964 4-8.969 8.91.001.904.2 1.762.543 2.54.017.041.044.077.064.117a6.385 6.385 0 0 0 2.624 2.833c-.42.61-.668 1.349-.668 2.145v5.091c0 3.51 2.873 6.364 6.406 6.364h23.062c3.533 0 6.406-2.855 6.406-6.364v-5.09c0-.797-.248-1.535-.668-2.146 1.919-1.1 3.227-3.135 3.231-5.49-.005-4.91-4.027-8.905-8.969-8.91z"/>
        <path fill="#D86C6B" d="M374.938 284.25l10.957-10.957a15.509 15.509 0 0 0 1.812 1.812l-10.957 10.957a1.272 1.272 0 0 1-.906.376 1.272 1.272 0 0 1-.906-.376 1.272 1.272 0 0 1-.375-.906c0-.332.123-.652.375-.906zm23.216-14.612a4.552 4.552 0 0 0 4.55-4.551 5.368 5.368 0 0 0-5.367-5.367 6.39 6.39 0 0 0-6.39 6.39 7.667 7.667 0 0 0 7.666 7.665 9.263 9.263 0 0 0 9.262-9.262c-.001-6.218-5.04-11.256-11.257-11.257-4.434 0-8.367 2.107-10.882 5.366a12.85 12.85 0 0 1 2.834-4.302 12.762 12.762 0 0 1 9.055-3.757c3.535 0 6.73 1.435 9.055 3.757a12.762 12.762 0 0 1 3.757 9.055c0 3.535-1.435 6.73-3.757 9.055a12.762 12.762 0 0 1-9.055 3.758c-2.693 0-5.188-.838-7.252-2.262l-.001-.001a12.922 12.922 0 0 1-3.297-3.297l-.001-.001a12.764 12.764 0 0 1-1.639-3.322l-.005-.301a11.148 11.148 0 0 1 3.276-7.908 11.146 11.146 0 0 1 7.912-3.278 8.707 8.707 0 0 1 8.694 8.695 6.709 6.709 0 0 1-6.7 6.7 5.111 5.111 0 0 1-5.102-5.104 3.833 3.833 0 0 1 3.827-3.827 2.81 2.81 0 0 1 2.804 2.805 1.992 1.992 0 0 1-1.987 1.988 1.28 1.28 0 1 0 0 2.563zM375.844 289a3.838 3.838 0 0 0 2.717-1.126l11.269-11.269a15.279 15.279 0 0 0 7.795 2.145c8.482-.003 15.372-6.893 15.375-15.375-.003-8.482-6.893-15.372-15.375-15.375-8.482.003-15.372 6.893-15.375 15.375a15.274 15.274 0 0 0 2.145 7.794l-11.269 11.27a3.838 3.838 0 0 0 0 5.435 3.838 3.838 0 0 0 2.718 1.126z"/>
        <g fill="#F8B337">
            <path d="M524.667 258.424a2.617 2.617 0 0 1 2.606 2.606 2.617 2.617 0 0 1-2.606 2.606 2.617 2.617 0 0 1-2.606-2.606 2.617 2.617 0 0 1 2.606-2.606zm0 7.818a5.217 5.217 0 0 0 5.212-5.212 5.217 5.217 0 0 0-5.212-5.212 5.217 5.217 0 0 0-5.212 5.212 5.217 5.217 0 0 0 5.212 5.212z"/>
            <path d="M519.142 255.505a7.783 7.783 0 0 1 5.525-2.293c2.157 0 4.104.874 5.525 2.293a7.783 7.783 0 0 1 2.293 5.525 7.783 7.783 0 0 1-2.293 5.525 7.783 7.783 0 0 1-5.525 2.293 7.783 7.783 0 0 1-5.525-2.293 7.783 7.783 0 0 1-2.294-5.525c0-2.158.875-4.104 2.294-5.525zm-8.052 19.102l3.567-10.698a10.447 10.447 0 0 0 7.13 7.131l-10.697 3.567zm7.473-26.54a1.304 1.304 0 0 0-1.648.824L508 275.636l-11.109 3.703a1.304 1.304 0 0 0 .824 2.473l9.255-3.085-3.085 9.255a1.304 1.304 0 0 0 2.473.824l3.703-11.109 26.745-8.915a1.304 1.304 0 0 0-.824-2.473l-3.019 1.006a10.359 10.359 0 0 0 2.128-6.285c-.003-5.751-4.673-10.421-10.424-10.424a10.366 10.366 0 0 0-6.285 2.127l1.006-3.018a1.304 1.304 0 0 0-.825-1.649z"/>
        </g>
        <path fill="#F1A317" d="M657.383 283.163c-1.186 2.038-3.246 3.23-5.597 3.237h-1.433v-9.1h.17-.085c0-2.6-1.823-3.899-3.967-3.9h-12.942a3.892 3.892 0 0 0-3.882 3.9v9.1h-1.433c-2.35-.006-4.411-1.199-5.597-3.237a6.511 6.511 0 0 1-.886-3.26 6.53 6.53 0 0 1 .866-3.228l11.784-20.72c1.183-2.064 3.247-3.267 5.619-3.274 2.372.007 4.436 1.21 5.62 3.274l11.783 20.72a6.515 6.515 0 0 1 .865 3.228c0 1.115-.291 2.23-.885 3.26zm-9.618 3.237h-5.935l5.935-5.962v5.962zm-15.53-4.438V277.3c0-.718.58-1.3 1.294-1.3h4.641l-5.935 5.962zm0 4.438v-.762L641.83 276h4.64c.557 0 1.022.358 1.204.853l-9.504 9.547h-5.935zm15.63-31.734a8.97 8.97 0 0 0-7.865-4.584 8.97 8.97 0 0 0-7.866 4.584l-11.785 20.72a9.123 9.123 0 0 0-1.205 4.517 9.11 9.11 0 0 0 1.235 4.565 8.995 8.995 0 0 0 7.835 4.532h23.572a8.995 8.995 0 0 0 7.835-4.532 9.116 9.116 0 0 0 1.235-4.565 9.126 9.126 0 0 0-1.205-4.518l-11.785-20.72z"/>
        <g fill="#F1A317">
            <path d="M779.81 267.364a3.897 3.897 0 0 1-2.754 1.136h-27.112a3.897 3.897 0 0 1-2.754-1.136c-.706-.7-1.127-1.642-1.125-2.633 0-.303.038-.612.121-.925a17.355 17.355 0 0 1 1.836-4.372 6.404 6.404 0 0 0 3.947 1.378 6.42 6.42 0 0 0 6.406-6.406c.001-1.03-.264-2-.705-2.87.08-.027.154-.063.235-.09 1.77-.572 3.659-.883 5.595-.883 2.152 0 4.235.383 6.146 1.074a18.044 18.044 0 0 1 8.946 7.177 17.765 17.765 0 0 1 2.223 4.994c.082.311.12.62.12.923 0 .991-.42 1.933-1.125 2.633zm-16.31 19.074a5.126 5.126 0 0 1-5.115-5.03l2.299-10.346h5.632l2.299 10.347a5.126 5.126 0 0 1-5.115 5.028zm-13.093-30.196l.014-.014c1.394-1.496 3.066-2.73 4.902-3.676.305.538.488 1.162.49 1.854-.004 2.105-1.74 3.84-3.844 3.844a3.854 3.854 0 0 1-2.488-.925c.297-.38.602-.746.926-1.083zm33.09 8.489c0-.52-.066-1.052-.206-1.58a20.295 20.295 0 0 0-2.543-5.721 20.608 20.608 0 0 0-10.22-8.199l-.005-.001A20.618 20.618 0 0 0 763.5 248c-2.213 0-4.37.355-6.392 1.01l-.01.003c-.655.22-1.282.464-1.9.733l-.01.005a20.48 20.48 0 0 0-6.629 4.717v-.002c-.002.003-.003.006-.006.008l-.008.007h.002c-.67.7-1.243 1.438-1.772 2.179a19.907 19.907 0 0 0-3.065 6.487 6.176 6.176 0 0 0-.208 1.584c.012 3.444 2.861 6.332 6.442 6.332h8.115l-2.216 9.971-.03.279a7.689 7.689 0 0 0 15.375 0l-.031-.279-2.216-9.971h8.115c3.58 0 6.43-2.888 6.442-6.332z"/>
            <path d="M768.625 263.375a2.573 2.573 0 0 1-2.563-2.563 2.573 2.573 0 0 1 2.563-2.562 2.573 2.573 0 0 1 2.563 2.563 2.573 2.573 0 0 1-2.563 2.562zm0-7.688a5.13 5.13 0 0 0-5.125 5.125 5.13 5.13 0 0 0 5.125 5.125 5.13 5.13 0 0 0 5.125-5.125 5.13 5.13 0 0 0-5.125-5.125z"/>
        </g>
        <g fill="#F1A317">
            <path d="M904.156 286.417h-33.312a1.289 1.289 0 0 1-1.282-1.292 1.288 1.288 0 0 1 1.282-1.292h33.312c.708 0 1.28.579 1.282 1.292a1.289 1.289 0 0 1-1.282 1.292zM887.5 268.333c7.602-.004 13.935 5.6 15.157 12.917h-30.314c1.222-7.317 7.555-12.92 15.157-12.917zm0-7.75c1.41.003 2.56 1.163 2.563 2.584-.003 1.42-1.154 2.58-2.563 2.583-1.41-.003-2.56-1.162-2.563-2.583.003-1.421 1.154-2.581 2.563-2.584zm17.76 20.85c-.992-7.472-6.5-13.492-13.668-15.188a5.153 5.153 0 0 0 1.033-3.078c-.003-2.852-2.296-5.164-5.125-5.167-2.829.003-5.122 2.315-5.125 5.167a5.153 5.153 0 0 0 1.033 3.078c-7.168 1.696-12.676 7.716-13.667 15.187a3.857 3.857 0 0 0-2.741 3.693c.001 2.14 1.72 3.875 3.844 3.875h33.312c2.123 0 3.843-1.735 3.844-3.875a3.857 3.857 0 0 0-2.74-3.693z"/>
            <path d="M887.5 270.917c-.707 0-1.281.578-1.281 1.291s.574 1.292 1.281 1.292c3.503-.001 6.655 1.819 8.511 4.597a1.274 1.274 0 0 0 1.779.349 1.298 1.298 0 0 0 .347-1.793c-2.313-3.462-6.242-5.735-10.637-5.736"/>
        </g>
        <path fill="#D86C6B" d="M2.994 408.194l16.82-16.82 1.812 1.811-16.82 16.82a1.27 1.27 0 0 1-.906.372 1.27 1.27 0 0 1-1.277-1.277 1.27 1.27 0 0 1 .371-.906zm16.82-22.257c.25-.248.57-.37.906-.371.336.001.658.123.906.371l5.437 5.437c.248.248.37.57.371.906a1.27 1.27 0 0 1-1.277 1.278 1.27 1.27 0 0 1-.906-.373l-5.436-5.436a1.27 1.27 0 0 1-.372-.906 1.27 1.27 0 0 1 .372-.906l-.906-.905.906.905zm1.812-5.436c.249-.247.57-.37.906-.371.336 0 .657.124.906.371l9.06 9.061c.248.249.371.57.372.906a1.273 1.273 0 0 1-1.278 1.277 1.271 1.271 0 0 1-.906-.371l-1.812-1.812v-.001l-7.248-7.247a1.271 1.271 0 0 1-.371-.906c0-.335.123-.657.371-.907l-.906-.906.906.906zm3.625-3.623a1.27 1.27 0 0 1 .906-.376c.332.002.652.123.906.376l9.06 9.06c.252.253.373.573.375.905a1.272 1.272 0 0 1-.376.906 1.267 1.267 0 0 1-.906.376 1.267 1.267 0 0 1-.905-.376l-9.06-9.06a1.272 1.272 0 0 1-.376-.905c.002-.332.122-.653.376-.906zm5.435-1.812c.254-.252.574-.374.906-.375.333 0 .653.123.906.375l5.436 5.435v.001c.252.253.374.573.375.906a1.278 1.278 0 0 1-2.187.906l-5.436-5.436a1.318 1.318 0 0 1-.374-.947c0-.295.119-.609.374-.865zm6.919 27.725c.48.778.71 1.646.712 2.523a5.034 5.034 0 0 1-2.36 4.265 4.97 4.97 0 0 1-2.637.759 4.96 4.96 0 0 1-4.24-2.348 4.976 4.976 0 0 1-.75-2.642c0-.918.25-1.836.74-2.633l4.242-5.848 4.293 5.924zM.06 409.1a3.838 3.838 0 0 0 1.123 2.717A3.838 3.838 0 0 0 3.9 412.94a3.834 3.834 0 0 0 2.718-1.123l16.82-16.82a3.839 3.839 0 0 0 2.719 1.123 3.838 3.838 0 0 0 2.717-1.123c.358-.356.624-.771.811-1.212a3.83 3.83 0 0 0 1.907.523c.147 0 .293-.025.44-.042l-5.076 7-.05.075a7.587 7.587 0 0 0-1.139 4.007c0 1.39.377 2.78 1.14 4a7.53 7.53 0 0 0 6.413 3.552c1.41 0 2.796-.397 3.996-1.148a7.594 7.594 0 0 0 3.562-6.438 7.338 7.338 0 0 0-1.11-3.9l-.05-.072-5.368-7.41a1.29 1.29 0 0 0-.47-.395c.147-.11.296-.218.43-.352a3.823 3.823 0 0 0 1.104-2.517 3.823 3.823 0 0 0 2.52-1.106v-.001a3.838 3.838 0 0 0 1.126-2.718 3.831 3.831 0 0 0-.524-1.906 3.818 3.818 0 0 0 2.336-3.529 3.838 3.838 0 0 0-1.126-2.719l-5.435-5.435a3.838 3.838 0 0 0-2.72-1.126 3.848 3.848 0 0 0-3.535 2.333 3.828 3.828 0 0 0-1.9-.521 3.84 3.84 0 0 0-2.718 1.126h.001a3.819 3.819 0 0 0-1.107 2.52 3.817 3.817 0 0 0-2.517 1.103 3.839 3.839 0 0 0-1.123 2.72 3.83 3.83 0 0 0 .523 1.906c-.44.187-.856.453-1.212.81a3.845 3.845 0 0 0 0 5.436l-16.82 16.82A3.839 3.839 0 0 0 .06 409.1zM136.605 382.723c.347-.18.594-.514.668-.9.779-4.145 4.382-7.262 8.727-7.26 4.345-.002 7.948 3.115 8.727 7.26.074.386.32.72.668.9 1.228.642 2.06 1.897 2.06 3.37a3.848 3.848 0 0 1-1.987 3.361l-.02.012a3.64 3.64 0 0 1-1.812.471c-1.137 0-2.135-.507-2.863-1.333a1.271 1.271 0 0 0-.955-.435c-.364 0-.714.16-.954.435-.728.826-1.726 1.332-2.864 1.334-1.138-.002-2.136-.508-2.864-1.334a1.271 1.271 0 0 0-.954-.435c-.364 0-.714.16-.955.435-.728.826-1.726 1.332-2.863 1.334a3.64 3.64 0 0 1-1.813-.472l-.019-.012a3.848 3.848 0 0 1-1.987-3.36c0-1.474.832-2.73 2.06-3.371zm16.86 12.34h-14.93l-.57-2.589c.133.008.264.026.399.026a6.252 6.252 0 0 0 3.818-1.306A6.252 6.252 0 0 0 146 392.5a6.252 6.252 0 0 0 3.818-1.306 6.252 6.252 0 0 0 3.818 1.306c.135 0 .266-.018.399-.026l-.57 2.589zm-1.698 7.687h-11.534l-1.131-5.125h13.796l-1.131 5.125zm-1.475 6.684a1.276 1.276 0 0 1-1.243 1.003h-6.098a1.276 1.276 0 0 1-1.243-1.003l-.91-4.122h10.404l-.91 4.122zm-15.125-17.823l4.057 18.38a3.824 3.824 0 0 0 3.727 3.009h6.098a3.824 3.824 0 0 0 3.727-3.01l4.057-18.38a6.403 6.403 0 0 0 3.167-5.516c0-2.248-1.17-4.2-2.906-5.326C155.875 375.722 151.377 372 146 372c-5.377.001-9.875 3.722-11.094 8.768a6.341 6.341 0 0 0-2.906 5.326 6.403 6.403 0 0 0 3.167 5.517z"/>
        <path fill="#F8B337" d="M273.923 386.094c-.004 2.122-1.757 3.84-3.923 3.844-2.166-.004-3.92-1.722-3.923-3.844.004-2.122 1.756-3.84 3.923-3.844 2.167.004 3.92 1.722 3.923 3.844zm1.308 6.406c2.165.004 3.919 1.72 3.923 3.844-.004 2.122-1.758 3.84-3.923 3.844-2.166-.004-3.92-1.722-3.923-3.844.004-2.123 1.757-3.84 3.923-3.844zm0-2.598c.01.014.022.025.032.04-.011-.002-.022-.005-.032-.005-.012 0-.021.003-.033.004.01-.014.022-.025.033-.04zm5.23-7.652c2.166.004 3.92 1.72 3.924 3.844-.004 2.122-1.758 3.84-3.923 3.844-2.166-.004-3.92-1.722-3.924-3.844.004-2.123 1.758-3.84 3.924-3.844zm-10.494 10.246c.012 0 .021.004.033.004.01 0 .02-.004.033-.004-.01.014-.023.026-.033.04-.01-.014-.022-.026-.033-.04zm.033 7.656c.01.014.022.025.033.04-.012-.002-.023-.005-.033-.005-.012 0-.02.003-.033.004.01-.014.023-.025.033-.04zm0 10.285c-2.166-.003-3.92-1.722-3.923-3.843.004-2.123 1.757-3.84 3.923-3.844 2.166.004 3.92 1.72 3.923 3.844-.004 2.121-1.757 3.84-3.923 3.843zm-5.23-10.25c-2.168-.003-3.92-1.722-3.924-3.843.004-2.123 1.756-3.84 3.923-3.844 2.166.004 3.92 1.72 3.923 3.844-.004 2.121-1.757 3.84-3.923 3.843zm-5.232-10.25c-2.166-.003-3.919-1.722-3.923-3.843.004-2.123 1.757-3.84 3.923-3.844 2.166.004 3.92 1.72 3.924 3.844-.004 2.121-1.758 3.84-3.924 3.843zm5.231-.035c.01.014.022.025.033.04-.012-.002-.022-.005-.033-.005-.01 0-.02.003-.032.004.01-.014.022-.025.032-.04zm13.077-15.34c.722 0 1.308-.574 1.308-1.28 0-.708-.586-1.282-1.308-1.282-4.654 0-8.485 3.404-9.069 7.808a6.53 6.53 0 0 0-4.008 2.478 6.551 6.551 0 0 0-5.23-2.599c-3.612.002-6.538 2.868-6.539 6.407.001 3.539 2.927 6.405 6.538 6.406.01 0 .021-.004.033-.004-.829 1.074-1.34 2.397-1.34 3.848.001 3.539 2.926 6.405 6.538 6.406.01 0 .021-.004.033-.004-.83 1.074-1.34 2.397-1.34 3.848 0 3.539 2.926 6.405 6.538 6.406 3.612-.001 6.537-2.867 6.538-6.406 0-1.45-.51-2.774-1.34-3.848.012 0 .021.004.033.004 3.612-.001 6.537-2.867 6.538-6.406 0-1.45-.511-2.774-1.34-3.848.012 0 .02.004.033.004 3.611-.001 6.537-2.867 6.538-6.406-.001-3.54-2.927-6.405-6.538-6.407-2.15 0-4.04 1.03-5.231 2.599a6.526 6.526 0 0 0-3.807-2.436c.547-3 3.203-5.282 6.422-5.288zM377.125 392.5h1.358c.665 0 1.217-.505 1.276-1.167.458-5.159 4.02-9.456 8.776-10.997a5.05 5.05 0 0 0 3.965 1.914 5.05 5.05 0 0 0 3.965-1.914c4.756 1.541 8.318 5.838 8.776 10.997a1.279 1.279 0 0 0 1.276 1.167h1.358a2.556 2.556 0 0 1 2.562 2.563 2.557 2.557 0 0 1-2.562 2.562h-30.75a2.557 2.557 0 0 1-2.563-2.563 2.556 2.556 0 0 1 2.563-2.562zm15.375-17.938a2.557 2.557 0 0 1 2.563 2.563c0 .401-.1.778-.277 1.1l-.037.072c-.377.804-1.236 1.392-2.249 1.39-1.013.002-1.872-.586-2.249-1.39l-.037-.073a2.28 2.28 0 0 1-.277-1.099 2.557 2.557 0 0 1 2.563-2.563zm10.687 34.845a1.282 1.282 0 0 1-1.257 1.03h-4.305v-10.25h7.406l-1.844 9.22zm-13.25 1.03h5.125v-10.25h-5.125v10.25zm-2.562 0h-4.305a1.282 1.282 0 0 1-1.257-1.03l-1.844-9.22h7.406v10.25zm-10.25-10.25h.23l1.946 9.723a3.843 3.843 0 0 0 3.769 3.09h18.86a3.843 3.843 0 0 0 3.77-3.09l1.944-9.723h.231a5.125 5.125 0 0 0 0-10.25h-.234c-.937-5.577-4.882-10.133-10.103-11.94.051-.286.087-.576.087-.872A5.129 5.129 0 0 0 392.5 372a5.129 5.129 0 0 0-5.125 5.125c0 .296.036.586.087.871-5.221 1.808-9.166 6.364-10.103 11.941h-.234a5.125 5.125 0 0 0 0 10.25z"/>
        <g fill="#F1A317">
            <path d="M534.438 392.5h-21.782a1.29 1.29 0 0 0-.906.375 1.29 1.29 0 0 0-.375.906v2.563c0 .707-.574 1.28-1.281 1.281a1.283 1.283 0 0 1-1.281-1.281v-2.563a1.29 1.29 0 0 0-.376-.906 1.29 1.29 0 0 0-.906-.375h-7.17c4.052-4.074 12.705-12.771 16.486-16.511a3.807 3.807 0 0 1 2.656-1.116c.245 0 .49.025.733.076 8.09 1.717 14.205 8.946 14.202 17.551zm0 14.094c0 2.105-1.74 3.84-3.844 3.844h-16.657a5.129 5.129 0 0 0-5.125-5.125 5.129 5.129 0 0 0-5.125 5.125h-1.28c-2.106-.004-3.844-1.74-3.844-3.844v-10.7c0-.283.037-.832.097-.832h7.59v1.282a3.844 3.844 0 0 0 7.688 0v-1.281h20.5v11.53zm-28.188 3.844a2.557 2.557 0 0 1 2.563-2.563 2.557 2.557 0 0 1 2.562 2.563h-5.125zm14.52-37.995a6.08 6.08 0 0 0-1.267-.133 6.365 6.365 0 0 0-4.459 1.857c-4.026 3.984-13.52 13.53-17.19 17.22a6.325 6.325 0 0 0-1.216 1.77c-.035.06-.07.116-.095.18-.35.802-.543 1.668-.543 2.557v10.7a6.414 6.414 0 0 0 6.406 6.406h28.188a6.414 6.414 0 0 0 6.406-6.406V392.5c0-9.843-6.971-18.089-16.23-20.057z"/>
            <path d="M524.188 400.188a2.573 2.573 0 0 1 2.562 2.562 2.573 2.573 0 0 1-2.563 2.563 2.573 2.573 0 0 1-2.562-2.563 2.573 2.573 0 0 1 2.563-2.563zm0 7.687a5.13 5.13 0 0 0 5.125-5.125 5.13 5.13 0 0 0-5.125-5.125 5.13 5.13 0 0 0-5.125 5.125 5.13 5.13 0 0 0 5.125 5.125z"/>
        </g>
        <g fill="#F1A317">
            <path d="M627.822 393.585c.802-.805 1.233-1.927 1.23-3.114 0-.36-.039-.727-.114-1.097l-.019-.076-.047-.341c0-.367.171-.727.493-1.026.32-.295.766-.472 1.144-.469.309.006.57.086.854.33l.067.055c.903.698 1.95 1.076 2.99 1.075 1.88.023 3.593-1.293 4.187-3.272l.019-.064c.096-.35.264-.558.513-.731.248-.17.594-.272.947-.272h.153c.353-.001.7.102.947.272.25.173.418.38.514.73l.018.065c.595 1.978 2.307 3.295 4.186 3.272 1.042.001 2.088-.377 2.992-1.075l.068-.055a1.24 1.24 0 0 1 .852-.33c.378-.003.825.172 1.144.47.322.298.493.658.493 1.025l-.047.34-.018.077a5.47 5.47 0 0 0-.114 1.097c-.004 1.187.428 2.31 1.23 3.114.796.807 1.94 1.262 3.172 1.257.297 0 .6-.026.907-.076l.056-.01.27-.03c.373.002.716.167 1.012.489.29.316.469.774.464 1.161-.005.34-.1.612-.362.886-.013.013-.017.031-.03.043l-.006-.005a4.691 4.691 0 0 0-.792 1.255 20.885 20.885 0 0 0-17.043-8.805 20.887 20.887 0 0 0-17.031 8.786 4.64 4.64 0 0 0-.782-1.236l-.006.006c-.012-.013-.017-.03-.03-.044a1.208 1.208 0 0 1-.363-.886c-.004-.387.174-.845.464-1.161.296-.322.639-.487 1.013-.488l.27.03.055.009c.308.05.61.076.909.076 1.23.005 2.374-.45 3.171-1.257zm30.122 16.448a1.337 1.337 0 0 1-.938.384h-33.71c-.364 0-.692-.145-.937-.384a1.232 1.232 0 0 1-.383-.886l.002-.09c.683-9.406 8.646-16.726 18.174-16.724 9.526-.002 17.49 7.316 18.173 16.724l.002.09c0 .337-.139.647-.383.886zm-33.772-17.775l-.96-.04v.004c0-.049-.026-.079-.272-.077-1.21-.002-2.017.567-2.717 1.348-.702.786-1.003 1.798-1.009 2.883-.005.907.397 1.874 1.115 2.627.006.01.039.021.046.029.419.426.643 1.334.631 2.182a7.49 7.49 0 0 1-.068 1.042l-.047.3a20.306 20.306 0 0 0-1.514 6.316l-.009.275c.01 2.142 1.774 3.853 3.929 3.853h33.71c2.153 0 3.916-1.711 3.927-3.853l-.01-.274a20.32 20.32 0 0 0-1.514-6.311 7.18 7.18 0 0 1-.117-1.302c-.012-.858.2-1.793.627-2.227.008-.009.01-.02.018-.028a3.798 3.798 0 0 0 1.053-2.629 4.34 4.34 0 0 0-1.127-2.883c-.7-.781-1.931-1.35-3.14-1.35-.247 0-.936.03-.936.08v-.006l-.299.041c-.618-.005-.931-.2-1.22-.487-.286-.289-.432-.707-.436-1.3l.085-.58.004-.002a3.86 3.86 0 0 0 .132-.932c-.002-1.185-.553-2.217-1.33-2.924-.779-.71-1.799-1.15-2.91-1.154a3.87 3.87 0 0 0-2.513.931l-.004-.003c-.508.39-.987.532-1.393.532-.705-.022-1.32-.368-1.7-1.464l-.004.002a3.809 3.809 0 0 0-1.55-2.16 4.312 4.312 0 0 0-2.411-.717h-.153c-.836 0-1.68.081-2.41.57-.713.474-1.294 2.013-1.55 2.013h-.005c-.176 1.292-.444 1.053-.732 1.278-.29.223-.605.403-.968.405-.405 0-.885-.107-1.393-.496l-.004.022a3.866 3.866 0 0 0-2.515-.922c-1.11.004-2.132.45-2.912 1.159-.775.706-1.33 1.74-1.33 2.927 0 .306.048.62.125.93l-.008.003.062.582c-.004.593-.435 1.01-.72 1.3-.29.287-.933.482-1.554.487z"/>
            <path d="M639.77 397.878a1.31 1.31 0 0 0-1.843 0l-7.818 7.75a1.282 1.282 0 0 0 0 1.827 1.31 1.31 0 0 0 1.843 0l7.818-7.75c.51-.504.51-1.323 0-1.827M648.351 397.878l-7.818 7.75a1.282 1.282 0 0 0 0 1.827 1.31 1.31 0 0 0 1.843 0l7.818-7.75c.51-.504.51-1.323 0-1.827a1.31 1.31 0 0 0-1.843 0"/>
        </g>
        <g fill="#F1A317">
            <path d="M763.852 377.125c-2.865.001-5.184 2.295-5.185 5.125 0 .707.58 1.281 1.296 1.281a1.29 1.29 0 0 0 1.296-1.281c.003-1.415 1.162-2.56 2.593-2.563 1.431.003 2.59 1.148 2.592 2.563 0 .707.581 1.281 1.297 1.281a1.29 1.29 0 0 0 1.296-1.281c-.001-2.83-2.322-5.124-5.185-5.125"/>
            <path d="M778.111 384.813h-25.926a1.291 1.291 0 0 1-1.296-1.282c.001-.707.58-1.28 1.296-1.281.341 0 .676-.137.917-.375.24-.239.38-.57.38-.906.003-2.123 1.742-3.84 3.888-3.844.812 0 1.553.242 2.177.657.333.225.75.28 1.133.157.382-.126.683-.418.816-.794a3.869 3.869 0 0 1 3.652-2.583 3.869 3.869 0 0 1 3.652 2.583c.132.376.434.668.816.794.383.124.8.067 1.133-.157a3.897 3.897 0 0 1 2.177-.657c2.147.004 3.885 1.72 3.889 3.844 0 .337.139.667.38.906.24.238.575.375.916.375a1.291 1.291 0 0 1 1.296 1.281 1.291 1.291 0 0 1-1.296 1.281zm1.27 4.094l-4.148 20.5a1.293 1.293 0 0 1-1.271 1.03h-1.035l1.293-22.992c.002-.024-.01-.07-.01-.07h3.9c.73 0 1.296.596 1.297 1.276l-.026.256zm-9.035 21.53h-3.902v-23.062h5.183l-1.292 22.992c-.002.024.01.046.011.07zm-6.494 0h-3.902c0-.024.013-.046.01-.07l-1.292-22.992h5.184v23.063zm-7.778 0c-.618 0-1.15-.431-1.272-1.03l-4.148-20.5-.026-.256a1.295 1.295 0 0 1 1.298-1.276h4.161s-.013.046-.012.07l1.293 22.993h-1.294zm23.223-30.548c-.522-3.022-3.165-5.327-6.371-5.327a6.52 6.52 0 0 0-2.328.445c-1.141-1.794-3.137-3.006-5.45-3.007-2.312.001-4.309 1.213-5.45 3.007a6.52 6.52 0 0 0-2.328-.444c-3.205 0-5.849 2.304-6.37 5.326-1.564.498-2.704 1.93-2.704 3.642 0 .918.339 1.748.882 2.409a3.805 3.805 0 0 0-1.066 3.47l4.148 20.5c.365 1.797 1.96 3.09 3.814 3.09h17.888c1.855 0 3.45-1.293 3.813-3.09l4.149-20.5c.051-.254.076-.509.076-.759 0-.976-.385-1.873-1.009-2.557A3.796 3.796 0 0 0 782 383.53c0-1.712-1.14-3.144-2.703-3.642z"/>
            <path d="M763.852 377.125c-2.865.001-5.184 2.295-5.185 5.125 0 .707.58 1.281 1.296 1.281a1.29 1.29 0 0 0 1.296-1.281c.003-1.415 1.162-2.56 2.593-2.563 1.431.003 2.59 1.148 2.592 2.563 0 .707.581 1.281 1.297 1.281a1.29 1.29 0 0 0 1.296-1.281c-.001-2.83-2.322-5.124-5.185-5.125"/>
            <path d="M778.111 384.813h-25.926a1.291 1.291 0 0 1-1.296-1.282c.001-.707.58-1.28 1.296-1.281.341 0 .676-.137.917-.375.24-.239.38-.57.38-.906.003-2.123 1.742-3.84 3.888-3.844.812 0 1.553.242 2.177.657.333.225.75.28 1.133.157.382-.126.683-.418.816-.794a3.869 3.869 0 0 1 3.652-2.583 3.869 3.869 0 0 1 3.652 2.583c.132.376.434.668.816.794.383.124.8.067 1.133-.157a3.897 3.897 0 0 1 2.177-.657c2.147.004 3.885 1.72 3.889 3.844 0 .337.139.667.38.906.24.238.575.375.916.375a1.291 1.291 0 0 1 1.296 1.281 1.291 1.291 0 0 1-1.296 1.281zm1.27 4.094l-4.148 20.5a1.293 1.293 0 0 1-1.271 1.03h-1.035l1.293-22.992c.002-.024-.01-.07-.01-.07h3.9c.73 0 1.296.596 1.297 1.276l-.026.256zm-9.035 21.53h-3.902v-23.062h5.183l-1.292 22.992c-.002.024.01.046.011.07zm-6.494 0h-3.902c0-.024.013-.046.01-.07l-1.292-22.992h5.184v23.063zm-7.778 0c-.618 0-1.15-.431-1.272-1.03l-4.148-20.5-.026-.256a1.295 1.295 0 0 1 1.298-1.276h4.161s-.013.046-.012.07l1.293 22.993h-1.294zm23.223-30.548c-.522-3.022-3.165-5.327-6.371-5.327a6.52 6.52 0 0 0-2.328.445c-1.141-1.794-3.137-3.006-5.45-3.007-2.312.001-4.309 1.213-5.45 3.007a6.52 6.52 0 0 0-2.328-.444c-3.205 0-5.849 2.304-6.37 5.326-1.564.498-2.704 1.93-2.704 3.642 0 .918.339 1.748.882 2.409a3.805 3.805 0 0 0-1.066 3.47l4.148 20.5c.365 1.797 1.96 3.09 3.814 3.09h17.888c1.855 0 3.45-1.293 3.813-3.09l4.149-20.5c.051-.254.076-.509.076-.759 0-.976-.385-1.873-1.009-2.557A3.796 3.796 0 0 0 782 383.53c0-1.712-1.14-3.144-2.703-3.642z"/>
        </g>
        <g fill="#F1A317">
            <path d="M879.542 381.52a5.047 5.047 0 0 1-1.234 2.066 5.1 5.1 0 0 1-3.623 1.498 5.101 5.101 0 0 1-3.625-1.498 5.1 5.1 0 0 1-1.498-3.623 5.101 5.101 0 0 1 1.498-3.625 5.06 5.06 0 0 1 2.068-1.234l-.989 5.929a1.28 1.28 0 0 0 1.475 1.475l5.928-.988zm-2.096 14.784a1.25 1.25 0 0 0 .906-.627c2.669-1.77 5.868-3.183 9.148-3.177 3.28-.006 6.478 1.407 9.148 3.177.187.335.513.564.906.627a33.596 33.596 0 0 1 4.452 3.883c-1.136 1.183-2.886 2.833-5.032 4.3-2.73 1.87-6.06 3.394-9.474 3.388-3.413.006-6.743-1.518-9.474-3.389-2.146-1.466-3.896-3.116-5.032-4.299a33.514 33.514 0 0 1 4.452-3.883zm26.487-12.718c-1 1.001-2.306 1.497-3.624 1.498a5.1 5.1 0 0 1-3.624-1.498 5.055 5.055 0 0 1-1.234-2.066l5.929.988a1.28 1.28 0 0 0 1.474-1.475l-.989-5.929a5.06 5.06 0 0 1 2.068 1.234c1 1.001 1.497 2.307 1.498 3.625a5.1 5.1 0 0 1-1.498 3.623zm-28.27-10.854a1.287 1.287 0 0 0-.978-.454 7.667 7.667 0 0 0-5.436 2.249 7.667 7.667 0 0 0-2.249 5.436c-.001 1.682.586 3.356 1.687 4.748a8.947 8.947 0 0 0-.406 2.664c0 3.812 2.38 7.058 5.734 8.358a37.156 37.156 0 0 0-3.726 3.601 1.286 1.286 0 0 0 0 1.707 36.52 36.52 0 0 0 5.434 4.947c-2.123 1.043-3.598 3.205-3.598 5.73a1.282 1.282 0 0 0 2.563 0 3.848 3.848 0 0 1 3.843-3.843c.03 0 .054-.014.082-.017 2.59 1.46 5.607 2.574 8.887 2.58 3.28-.006 6.297-1.12 8.887-2.58.028.003.052.017.082.017a3.85 3.85 0 0 1 3.843 3.844 1.282 1.282 0 0 0 2.563 0c0-2.526-1.475-4.688-3.598-5.733a36.457 36.457 0 0 0 5.434-4.945 1.286 1.286 0 0 0 0-1.707 37.156 37.156 0 0 0-3.726-3.601c3.352-1.3 5.734-4.546 5.734-8.358 0-.928-.145-1.825-.409-2.669 1.1-1.391 1.685-3.062 1.684-4.743a7.667 7.667 0 0 0-2.249-5.436 7.667 7.667 0 0 0-5.435-2.249c-.377 0-.735.167-.979.454a1.287 1.287 0 0 0-.286 1.039l.987 5.914-5.916-.987a1.28 1.28 0 0 0-1.491 1.265 7.667 7.667 0 0 0 2.249 5.435 7.667 7.667 0 0 0 5.435 2.249c1.305 0 2.602-.363 3.774-1.025.03.25.073.494.073.753-.006 3.336-2.561 6.04-5.818 6.346-2.967-2.01-6.696-3.777-10.838-3.784-4.142.007-7.87 1.774-10.838 3.784-3.257-.306-5.812-3.01-5.818-6.346 0-.258.043-.501.073-.75 1.17.66 2.465 1.023 3.768 1.022a7.667 7.667 0 0 0 5.435-2.249 7.667 7.667 0 0 0 2.249-5.435 1.283 1.283 0 0 0-1.492-1.265l-5.915.987.986-5.914a1.287 1.287 0 0 0-.285-1.04z"/>
            <path d="M882.51 404.604a1.282 1.282 0 0 0 2.292-1.145l-2.563-5.125a1.28 1.28 0 1 0-2.292 1.145l2.563 5.125M890.771 405.177a1.28 1.28 0 0 0 1.718-.573l2.563-5.125a1.282 1.282 0 0 0-2.292-1.145l-2.563 5.125a1.282 1.282 0 0 0 .574 1.718"/>
        </g>
        <path fill="#D86C6B" d="M33.313 508.613c-2.823-.005-5.12-2.319-5.126-5.161 0-.957.276-1.838.727-2.606l3.493 3.518c.238.24.569.378.906.378.336 0 .667-.138.905-.378l3.493-3.518c.451.768.727 1.65.727 2.606-.006 2.842-2.303 5.156-5.126 5.16zm-7.688 7.742v.001l-.855 2.58h-8.54l-.855-2.581h.17l5.124-10.323 4.956 10.32v.003zm-2.563 7.742h-5.125l-.853-2.58h6.832l-.854 2.58zm-2.161 6.53a1.255 1.255 0 0 0-.802 0l-1.307-3.95h3.416l-1.307 3.95zM7.688 508.613c-2.823-.005-5.12-2.319-5.125-5.161 0-.957.275-1.838.726-2.606l3.493 3.518c.238.24.569.378.905.378.337 0 .668-.138.906-.378l3.493-3.518c.451.768.726 1.65.726 2.606-.005 2.842-2.302 5.156-5.124 5.16zm29.247-10.634l-3.623 3.648-3.622-3.648a1.276 1.276 0 0 0-1.811 0 7.754 7.754 0 0 0-2.254 5.473 7.746 7.746 0 0 0 4.853 7.19c-.45 1.664-1.31 3.104-2.642 4.124l-4.773-9.887v-.003c-1.282-.87-1.592-1.424-2.563-1.424-.971 0-2.563.553-2.563 1.424v.003l-4.773 9.887c-1.332-1.02-2.26-2.46-2.71-4.125 2.839-1.138 4.885-3.926 4.888-7.19a7.74 7.74 0 0 0-2.237-5.472 1.267 1.267 0 0 0-1.804 0l-3.617 3.648-3.62-3.648a1.276 1.276 0 0 0-1.812 0A7.748 7.748 0 0 0 0 503.452c.003 4.272 3.445 7.739 7.688 7.742.108 0 .216-.012.324-.017a10.329 10.329 0 0 0 5.107 6.522l4.903 14.81-2.272 2.288a1.295 1.295 0 0 0 0 1.825c.5.504 1.312.504 1.812 0l2.291-2.306c.209.056.423.103.647.103.224 0 .438-.047.647-.103l2.29 2.306c.5.504 1.313.504 1.813 0a1.295 1.295 0 0 0 0-1.825l-2.272-2.287 4.903-14.81a10.329 10.329 0 0 0 5.107-6.523c.108.005.216.017.325.017 4.242-.003 7.684-3.47 7.687-7.742a7.754 7.754 0 0 0-2.254-5.473 1.276 1.276 0 0 0-1.811 0z"/>
        <g fill="#F8B337">
            <path d="M256.531 506.668c2.127-2.013 4.795-2.945 6.356-2.927a2.97 2.97 0 0 1 .77.087c.86.232 1.687.741 2.59 1.28.896.518 1.905 1.127 3.253 1.142h.001c1.225-.028 2.108-.566 3.01-1.017.897-.472 1.793-.932 2.756-1.144.246-.054.543-.088.881-.088 1.728-.012 4.362.89 6.446 2.836 2.091 1.95 3.718 4.867 3.725 9.09 0 1.991-.369 4.277-1.26 6.882-.784 2.298-2.24 5.276-4 7.581-.877 1.153-1.831 2.137-2.771 2.798-.944.665-1.836.993-2.655.99-.577-.002-1.153-.148-1.807-.541-.588-.356-1.228-.769-1.931-1.118-.702-.342-1.486-.639-2.395-.644-.91.005-1.694.302-2.396.644-.703.349-1.343.762-1.932 1.118-.651.392-1.224.538-1.802.54-.815.002-1.706-.324-2.649-.987-1.41-.987-2.84-2.706-4.025-4.618-1.19-1.91-2.154-4.01-2.745-5.726-.892-2.582-1.26-4.857-1.261-6.847.009-4.308 1.701-7.315 3.841-9.331zm-5.041 17.004c.881 2.541 2.409 5.674 4.386 8.268.992 1.297 2.096 2.46 3.333 3.334 1.234.869 2.635 1.463 4.162 1.466 1.064.002 2.154-.304 3.165-.921.623-.38 1.21-.752 1.73-1.006.52-.26.953-.38 1.234-.376.28-.005.712.116 1.234.376.518.254 1.107.626 1.729 1.006 1.012.619 2.104.925 3.17.922 1.53-.001 2.935-.598 4.17-1.47 1.855-1.317 3.422-3.277 4.732-5.378a31.96 31.96 0 0 0 2.987-6.264c.97-2.832 1.397-5.397 1.397-7.702.01-4.898-1.968-8.585-4.546-10.958-2.585-2.376-5.687-3.516-8.225-3.53-.504 0-.99.047-1.453.15-1.394.312-2.51.917-3.402 1.38l-.162.083a6.477 6.477 0 0 1 6.169-4.49c.718 0 1.3-.573 1.3-1.28 0-.708-.582-1.282-1.3-1.282-4.459 0-8.161 3.162-8.941 7.334a9.611 9.611 0 0 1-.775-.424c-.852-.499-1.885-1.178-3.23-1.55a5.52 5.52 0 0 0-1.467-.181c-2.444.018-5.525 1.202-8.146 3.63-2.606 2.429-4.66 6.192-4.65 11.19-.001 2.304.428 4.861 1.399 7.673z"/>
            <path d="M274.996 509.735c.59-.307 1.09-.419 1.546-.42.338.001.658.063.987.188.765.287 1.58.971 2.296 1.96.767 1.054 1.207 2.37 1.281 4a1.293 1.293 0 0 0 1.356 1.224 1.287 1.287 0 0 0 1.242-1.336c-.087-2.026-.665-3.872-1.768-5.384-.914-1.25-2.045-2.304-3.466-2.853a5.391 5.391 0 0 0-1.928-.362c-.915-.001-1.856.242-2.766.72a1.27 1.27 0 0 0-.537 1.733 1.309 1.309 0 0 0 1.757.53"/>
        </g>
        <g fill="#F8B337">
            <path d="M408.183 532.183a7.653 7.653 0 0 1-5.433 2.255 7.653 7.653 0 0 1-5.433-2.255 7.653 7.653 0 0 1-2.255-5.433c0-2.122.86-4.036 2.255-5.433a7.653 7.653 0 0 1 5.433-2.255c2.122 0 4.036.86 5.432 2.255a7.653 7.653 0 0 1 2.255 5.433c0 2.122-.86 4.036-2.255 5.432zm-20.5-10.865a7.653 7.653 0 0 1 2.255 5.432c0 2.122-.86 4.036-2.255 5.432a7.653 7.653 0 0 1-5.433 2.255 7.653 7.653 0 0 1-5.433-2.255 7.653 7.653 0 0 1-2.255-5.432c0-2.122.86-4.036 2.255-5.433a7.653 7.653 0 0 1 5.433-2.255c2.122 0 4.036.86 5.432 2.255zm17.1-4.614a24.96 24.96 0 0 1-7.158-17.482v-1.94c0-.708-.574-1.282-1.281-1.282l-.476.091-.019.009-.009.004a21.662 21.662 0 0 0-13.59 20.101v.295c-6.406.003-10.247 4.595-10.25 10.25.003 5.655 4.595 10.247 10.25 10.25 5.655-.003 10.247-4.595 10.25-10.25-.003-4.792-3.304-8.81-7.753-9.93.028-.103.066-.206.066-.32v-.295a19.095 19.095 0 0 1 10.253-16.915 27.52 27.52 0 0 0 6.196 17.33c-4.949.727-8.76 4.982-8.762 10.13.003 5.655 4.595 10.247 10.25 10.25 5.655-.003 10.247-4.595 10.25-10.25-.003-4.96-3.535-9.1-8.218-10.046z"/>
            <path d="M402.75 521.625a1.282 1.282 0 0 0 0 2.563 2.573 2.573 0 0 1 2.563 2.562 1.282 1.282 0 0 0 2.562 0 5.13 5.13 0 0 0-5.125-5.125M380.969 522.906c0 .708.574 1.282 1.281 1.282a2.573 2.573 0 0 1 2.563 2.562 1.282 1.282 0 0 0 2.562 0 5.13 5.13 0 0 0-5.125-5.125c-.707 0-1.281.574-1.281 1.281"/>
        </g>
        <path fill="#F1A317" d="M621.987 533.333c1.48-3.668 4.849-9.423 8.4-14.763.482-.729.97-1.448 1.456-2.157l3.45 3.45a1.304 1.304 0 0 0 1.843-1.843l-3.775-3.775c2.55-3.578 4.961-6.63 6.54-8.203a7.788 7.788 0 0 1 5.528-2.285 7.79 7.79 0 0 1 5.529 2.285 7.79 7.79 0 0 1 2.285 5.53 7.79 7.79 0 0 1-2.285 5.527l-4.608-4.607a1.304 1.304 0 0 0-1.842 1.842l4.512 4.513c-2.577 2.176-6.477 5.04-10.59 7.766a155.364 155.364 0 0 1-4.538 2.905l-2.283-2.283a1.303 1.303 0 1 0-1.844 1.842l1.827 1.826c-3.011 1.775-5.817 3.259-7.924 4.11l-.486.099c-.33 0-.655-.142-.904-.39a1.289 1.289 0 0 1-.39-.904l.1-.485zm1.2 4.385a3.87 3.87 0 0 0 1.461-.29c4.007-1.627 9.785-5.034 15.225-8.644 5.44-3.618 10.46-7.381 12.927-9.842a10.4 10.4 0 0 0 3.05-7.37c0-1.778-.463-3.845-1.368-5.148h5.215a1.304 1.304 0 0 0 0-2.606h-4.673l4.226-4.226a1.304 1.304 0 0 0-1.842-1.842l-4.226 4.226v-4.673a1.304 1.304 0 0 0-2.606 0v5.215c-1.303-.905-3.37-1.367-5.147-1.367a10.398 10.398 0 0 0-7.371 3.049c-2.46 2.468-6.224 7.487-9.842 12.927-3.61 5.44-7.017 11.22-8.645 15.226-.195.481-.289.98-.289 1.465a3.936 3.936 0 0 0 3.905 3.9z"/>
        <g fill="#F1A317">
            <path d="M776.02 528.018c-1.342 1.91-2.928 3.522-4.635 4.635-1.71 1.113-3.518 1.73-5.385 1.73s-3.676-.617-5.386-1.73c-2.56-1.666-4.844-4.467-6.451-7.694-1.614-3.224-2.55-6.862-2.548-10.12 0-2.177.408-3.759 1.069-4.933.573-1.012 1.378-1.758 2.382-2.348 1.116 2.004 3.24 3.368 5.703 3.371 2.15 0 4.04-1.048 5.231-2.643 1.191 1.595 3.08 2.643 5.23 2.643 2.457-.003 4.576-1.36 5.694-3.353 1.002.592 1.816 1.311 2.392 2.33.66 1.174 1.067 2.756 1.069 4.932.009 4.347-1.674 9.362-4.365 13.18zm-18.443-21.512c1.915-.525 4.28-.716 6.867-.767a3.918 3.918 0 0 1-3.675 2.584 3.912 3.912 0 0 1-3.285-1.784c.033-.01.06-.023.093-.033zm16.939.034a3.913 3.913 0 0 1-3.285 1.783 3.918 3.918 0 0 1-3.672-2.575c2.626.05 5.027.254 6.957.792zm7.082 2.092c-1.106-1.98-2.843-3.258-4.854-4.074-.043-.015-.076-.046-.122-.06-.02-.005-.041.002-.061-.003-.475-.184-.948-.368-1.448-.502-2.313-.628-4.923-.814-7.675-.861a6.54 6.54 0 0 1 6.408-5.233c.722 0 1.308-.584 1.308-1.303 0-.72-.586-1.303-1.308-1.303-4.616 0-8.395 3.416-9.024 7.843-3.395.048-6.552.336-9.244 1.35-.067.007-.132-.004-.2.013-.18.048-.34.134-.478.243-.188.082-.4.128-.583.22-1.607.808-2.99 2.014-3.915 3.67-.931 1.656-1.403 3.712-1.402 6.206.01 4.995 1.846 10.403 4.837 14.673 1.5 2.135 3.297 3.984 5.345 5.322 2.044 1.336 4.36 2.158 6.818 2.157 2.458 0 4.774-.821 6.818-2.157 3.07-2.01 5.582-5.159 7.361-8.713 1.775-3.559 2.817-7.536 2.821-11.282 0-2.494-.47-4.55-1.402-6.206z"/>
            <path d="M766 513.535c-.722 0-1.308 1.168-1.308 2.606 0 1.44.586 2.606 1.308 2.606.722 0 1.308-1.166 1.308-2.606 0-1.438-.586-2.606-1.308-2.606M766 523.96c-.722 0-1.308 1.167-1.308 2.605 0 1.44.586 2.606 1.308 2.606.722 0 1.308-1.166 1.308-2.606 0-1.438-.586-2.606-1.308-2.606M773.846 518.747c-.722 0-1.308 1.168-1.308 2.606 0 1.44.586 2.606 1.308 2.606.722 0 1.308-1.166 1.308-2.606 0-1.438-.586-2.606-1.308-2.606M758.154 518.747c-.722 0-1.308 1.168-1.308 2.606 0 1.44.586 2.606 1.308 2.606.722 0 1.308-1.166 1.308-2.606 0-1.438-.586-2.606-1.308-2.606"/>
        </g>
        <g fill="#F1A317">
            <path d="M901.552 530.506c-3.003 2.366-7.264 3.652-12.052 3.65-4.788.002-9.05-1.284-12.052-3.65-3-2.377-4.834-5.778-4.848-10.443.014-4.666 1.849-8.067 4.848-10.444 2.432-1.915 5.696-3.11 9.388-3.498l-1.444 1.96a1.269 1.269 0 0 0 .287 1.79c.581.416 1.394.289 1.816-.284l2.005-2.72 2.005 2.72c.422.573 1.235.7 1.816.283.58-.415.71-1.217.287-1.79l-1.444-1.959c3.692.388 6.956 1.583 9.388 3.498 3 2.377 4.832 5.778 4.848 10.443-.016 4.666-1.849 8.067-4.848 10.444zm1.621-22.89c-2.206-1.732-4.888-2.92-7.845-3.583a1.26 1.26 0 0 0 .353-1.325 1.304 1.304 0 0 0-1.638-.823l-2.931.94c.315-1.015.848-1.934 1.591-2.668.508-.5.508-1.31 0-1.812-.507-.5-1.33-.5-1.838 0a8.913 8.913 0 0 0-2.495 4.633l-3.414-1.093a1.304 1.304 0 0 0-1.638.823 1.26 1.26 0 0 0 .354 1.325c-2.957.662-5.64 1.851-7.845 3.583-3.594 2.806-5.843 7.092-5.827 12.447-.016 5.354 2.233 9.64 5.827 12.446 3.586 2.816 8.425 4.208 13.673 4.21 5.248-.002 10.087-1.394 13.673-4.21 3.594-2.806 5.841-7.092 5.827-12.446.014-5.355-2.233-9.64-5.827-12.447z"/>
            <path d="M899.077 511.037a1.312 1.312 0 0 0-1.803.357 1.27 1.27 0 0 0 .361 1.775c2.15 1.444 3.539 3.497 3.565 6.893 0 .708.582 1.282 1.3 1.282.718 0 1.3-.574 1.3-1.282.026-4.16-1.943-7.233-4.723-9.025"/>
        </g>
        <path fill="#D86C6B" d="M22 645.645c-3.16 0-6.016-1.301-8.096-3.392-1.793-1.807-2.99-4.316-3.283-6.878h22.758c-.294 2.563-1.49 5.071-3.283 6.878-2.08 2.09-4.936 3.391-8.096 3.392zm-9.138-23.083h18.276l2.037 10.25h-22.35l2.037-10.25zM36 634.115l-.024-.25-2.546-12.824c-.12-.6-.641-1.04-1.248-1.04H11.818c-.607 0-1.129.44-1.248 1.04l-2.546 12.818-.024.254c.003 7.341 5.09 13.378 12.727 14.03v10.295h-6.363a1.28 1.28 0 0 0-1.273 1.282c0 .704.57 1.281 1.273 1.281h15.272a1.28 1.28 0 0 0 1.273-1.281 1.28 1.28 0 0 0-1.273-1.282h-6.363v-10.294c6.363-.653 12.724-6.687 12.727-14.029zM159.875 642.655a15.5 15.5 0 0 1-4.513 10.945c-2.79 2.813-6.627 4.542-10.862 4.542s-8.072-1.73-10.862-4.538a15.487 15.487 0 0 1-4.513-10.94c0-2.26.496-4.421 1.39-6.341l.013-.038c.635-1.45 1.512-2.672 2.556-3.962h16.556c1.124 2.58 1.726 5.805 1.867 8.729a1.29 1.29 0 0 0 1.344 1.23 1.294 1.294 0 0 0 1.216-1.36c-.14-2.812-.64-6.019-1.648-8.6h3.493c2.447 2.581 3.962 6.355 3.963 10.333zm-33.313-12.892c.006-2.848 2.298-5.167 5.126-5.172 2.827.005 5.12 2.57 5.125 5.15h-4.305a1.29 1.29 0 0 0-.924.407 17.724 17.724 0 0 0-2.788 3.858 5.146 5.146 0 0 1-2.234-4.243zm37.157-5.182h-5.125c-.337 0-.668.138-.906.378l-4.75 4.783h-13.563c-.001-3.871-3.443-7.73-7.688-7.732-4.244.002-7.686 3.473-7.687 7.747a7.749 7.749 0 0 0 3.728 6.633 17.653 17.653 0 0 0-1.165 6.275c.003 9.954 8.052 18.058 17.937 18.07 9.885-.012 17.934-8.114 17.938-18.07 0-4.864-1.936-9.264-5.02-12.505a1.291 1.291 0 0 0-.868-.396l2.574-2.603h4.595c.707 0 1.281-.578 1.281-1.29 0-.712-.574-1.29-1.281-1.29z"/>
        <path fill="#F8B337" d="M282.063 632.4l-12.282 12.472-10.113-10.255c-.021-.023-.052-.04-.075-.06l-2.107-2.157h16.89l-5.5 5.591c-.502.507-.954 1.335-.454 1.844.5.508 1.36.51 1.36.002v-.009l8.217-7.428h4.064zm-26.375 2.62c-2.828-.004-5.12-2.33-5.125-5.2.005-2.868 2.297-5.204 5.125-5.21 2.827.006 5.12 2.59 5.125 5.19h-6.407c-.517 0-.984.325-1.182.811a1.32 1.32 0 0 0 .274 1.421l2.875 2.938c-.224.03-.454.05-.685.05zm32.03-10.42h-5.124c-.337 0-.668.14-.906.38l-4.75 4.82h-13.563c-.001-3.9-3.443-7.788-7.688-7.79-4.244.002-7.686 3.499-7.687 7.806.001 4.307 3.443 7.8 7.688 7.802a7.649 7.649 0 0 0 2.79-.529l10.022 10.17V658.4h-6.406c-.707 0-1.281.585-1.281 1.3 0 .715.574 1.3 1.28 1.3h15.376c.707 0 1.281-.585 1.281-1.3 0-.715-.574-1.3-1.281-1.3h-6.406v-11.141l15-15.22a1.33 1.33 0 0 0 .277-1.426 1.293 1.293 0 0 0-1.184-.813h-4.594l2.562-2.6h4.595c.707 0 1.281-.582 1.281-1.3 0-.718-.574-1.3-1.281-1.3zM403.154 635.375h-10.462c.006-2.563 2.345-5.11 5.231-5.115.198 0 .438.014.709.039 2.534.332 4.526 2.514 4.522 5.076zm-3.449 9.444a11.856 11.856 0 0 1-8.32 3.384 11.856 11.856 0 0 1-8.321-3.386c-1.843-1.807-3.07-4.317-3.371-6.88h23.384c-.302 2.563-1.529 5.076-3.372 6.882zm-15.568-14.515c.271-.025.512-.049.71-.049 2.885.005 5.225 2.558 5.23 5.12h-10.462c-.004-2.563 1.988-4.74 4.522-5.071zm7.248-5.158c2.206 0 4.124 1.05 5.298 2.667a7.864 7.864 0 0 0-5.298 3.338 7.864 7.864 0 0 0-5.3-3.338c1.175-1.617 3.094-2.667 5.3-2.667zm17.383-4.75l-8.015 7.853a7.93 7.93 0 0 0-1.03-.31c-1.404-3.157-4.59-5.357-8.338-5.356-3.748-.001-6.935 2.199-8.34 5.357-3.454.802-6.041 3.817-6.045 7.455 0 .329.029.644.068.95-.03.109-.068.218-.068.332.001 7.349 5.23 13.379 13.077 14.028v7.733h-6.539c-.721 0-1.307.576-1.307 1.28 0 .705.586 1.282 1.307 1.282h15.693c.722 0 1.307-.577 1.307-1.281 0-.705-.585-1.281-1.307-1.281h-6.539v-7.733c6.539-.65 13.076-6.679 13.077-14.028 0-.114-.038-.223-.068-.332.04-.306.068-.621.068-.95-.002-2.315-1.062-4.372-2.71-5.782l7.558-7.405a1.262 1.262 0 0 0 0-1.812 1.325 1.325 0 0 0-1.85 0z"/>
        <g fill="#F1A317">
            <path d="M505.6 632.082l4.438-4.394h11.924l4.438 4.394v22.537c0 2.114-1.747 3.818-3.9 3.818h-13c-2.153 0-3.9-1.704-3.9-3.818v-22.537zm-2.6-.53v23.067c0 3.537 2.91 6.381 6.5 6.381h13c3.59 0 6.5-2.844 6.5-6.38v-23.068c0-.337-.14-.678-.38-.916l-2.982-2.948h.762c.718 0 1.3-.574 1.3-1.282 0-.707-.582-1.281-1.3-1.281h-11.162l-4.819-4.74a1.312 1.312 0 0 0-1.838.006 1.258 1.258 0 0 0 0 1.804l2.98 2.93H505.6c-.718 0-1.3.574-1.3 1.281 0 .708.582 1.282 1.3 1.282h.762l-2.981 2.948c-.242.238-.381.579-.381.916z"/>
            <path d="M512.1 645.625h5.372l-3.854 5.705c-.399.59-.236 1.39.36 1.783a1.312 1.312 0 0 0 1.804-.353l5.2-7.686c.266-.395.29-.907.065-1.325a1.308 1.308 0 0 0-1.147-.686h-5.372l3.854-5.685c.397-.59.236-1.38-.36-1.772a1.312 1.312 0 0 0-1.804.357v.001l-5.2 7.69a1.247 1.247 0 0 0-.065 1.305c.228.417.666.666 1.147.666"/>
        </g>
        <g fill="#F1A317">
            <path d="M629.6 632.082l4.438-4.394h11.924l4.438 4.394v22.537c0 2.114-1.747 3.818-3.9 3.818h-13c-2.153 0-3.9-1.704-3.9-3.818v-22.537zM633.5 661h13c3.59 0 6.5-2.844 6.5-6.38v-23.068c0-.337-.14-.678-.38-.916l-2.982-2.949h.762c.718 0 1.3-.574 1.3-1.28 0-.708-.582-1.282-1.3-1.282h-11.162l-4.819-4.74a1.312 1.312 0 0 0-1.838.006 1.258 1.258 0 0 0 0 1.804l2.98 2.93H629.6c-.718 0-1.3.574-1.3 1.281s.582 1.281 1.3 1.281h.762l-2.981 2.949c-.242.238-.381.579-.381.916v23.067c0 3.537 2.91 6.381 6.5 6.381z"/>
            <path d="M640 637.958a5.207 5.207 0 0 1 4.653 2.89 6.571 6.571 0 0 0-1.403-.17 6.55 6.55 0 0 0-4.063 1.404 3.934 3.934 0 0 1-2.437.843 3.957 3.957 0 0 1-1.884-.477 5.175 5.175 0 0 1 5.134-4.49zm0 10.25a5.21 5.21 0 0 1-4.654-2.89c.464.1.932.17 1.404.17a6.561 6.561 0 0 0 4.063-1.404 3.918 3.918 0 0 1 2.437-.843c.651 0 1.299.158 1.884.477-.327 2.52-2.491 4.485-5.134 4.49zm0 2.563c4.304-.003 7.797-3.446 7.8-7.688-.003-4.242-3.496-7.685-7.8-7.687-4.304.002-7.797 3.445-7.8 7.687.003 4.242 3.496 7.685 7.8 7.688z"/>
        </g>
        <g fill="#F1A317">
            <path d="M753.101 626.996l-.043-.537a3.358 3.358 0 0 0-1.813-2.468.77.77 0 0 1-.417-.565l-.01-.124.226-.545.55-.55a1.28 1.28 0 1 0-1.812-1.812l-.549.55a3.328 3.328 0 0 0-.977 2.357l.043.534a3.332 3.332 0 0 0 1.8 2.447.799.799 0 0 1 .43.585l.01.128-.233.562-.524.525a1.28 1.28 0 0 0 0 1.812 1.28 1.28 0 0 0 1.811 0l.526-.524a3.364 3.364 0 0 0 .982-2.375M760.789 626.996l-.044-.537a3.358 3.358 0 0 0-1.813-2.468.77.77 0 0 1-.416-.565l-.01-.124.225-.545.55-.55a1.28 1.28 0 1 0-1.812-1.812l-.548.55a3.328 3.328 0 0 0-.978 2.357l.044.534a3.332 3.332 0 0 0 1.8 2.447.799.799 0 0 1 .43.585l.01.128-.234.562-.524.525a1.28 1.28 0 0 0 0 1.812 1.28 1.28 0 0 0 1.812 0l.525-.524a3.364 3.364 0 0 0 .983-2.375M768.476 626.996l-.043-.537a3.358 3.358 0 0 0-1.813-2.468.77.77 0 0 1-.417-.565l-.01-.124.226-.545.55-.55a1.28 1.28 0 1 0-1.812-1.812l-.549.55a3.328 3.328 0 0 0-.977 2.357l.043.534a3.332 3.332 0 0 0 1.8 2.447.799.799 0 0 1 .43.585l.01.128-.233.562-.524.525a1.28 1.28 0 0 0 0 1.812 1.28 1.28 0 0 0 1.811 0l.526-.524a3.364 3.364 0 0 0 .982-2.375M775.031 650.75h-1.281v-12.813h1.281c3.538 0 6.4 2.87 6.407 6.407-.007 3.537-2.87 6.406-6.407 6.406zm-3.843 3.87c0 2.113-1.722 3.817-3.844 3.817h-17.938c-2.123 0-3.843-1.704-3.843-3.818v-19.244h25.625v19.244zm3.843-19.245h-1.281v-1.26a1.301 1.301 0 0 0-1.281-1.302H744.28a1.301 1.301 0 0 0-1.281 1.301v20.505c0 3.537 2.867 6.381 6.406 6.381h17.938c3.539 0 6.406-2.844 6.406-6.38v-1.308h1.281c4.954 0 8.968-4.015 8.969-8.968-.001-4.954-4.015-8.969-8.969-8.969z"/>
        </g>
        <path fill="#F1A317" d="M869.563 629.615h10.25v5.231h-1.282c-2.123 0-3.843 1.777-3.843 3.944v5.23c0 2.168 1.72 3.903 3.843 3.903h5.125c2.123 0 3.844-1.735 3.844-3.902v-5.23c0-2.168-1.72-3.945-3.844-3.945h-1.281v-5.23h12.813v24.872c0 2.157-1.722 3.897-3.844 3.897h-17.938c-2.123 0-3.843-1.74-3.843-3.897v-24.873zm11.53 7.847h2.563c.708 0 1.282.606 1.282 1.328v5.23c0 .723-.574 1.288-1.282 1.288h-5.125a1.286 1.286 0 0 1-1.281-1.298v.01-5.23c0-.722.574-1.328 1.281-1.328h2.563zm16.657-2.616h1.281c3.538 0 6.4 2.928 6.407 6.539-.007 3.61-2.87 6.538-6.407 6.538h-1.281v-13.077zM873.406 661h17.938c3.539 0 6.406-2.903 6.406-6.512v-3.95h1.281c4.954 0 8.968-4.098 8.969-9.153-.001-5.056-4.015-9.154-8.969-9.154h-1.281v-3.902c0-.344-.137-.692-.375-.935a1.288 1.288 0 0 0-.906-.394H868.28c-.337 0-.667.15-.906.394a1.357 1.357 0 0 0-.375.935v26.159c0 3.609 2.867 6.512 6.406 6.512z"/>
        <g fill="#D86C6B">
            <path d="M36.429 781.438h-7.715v-23.793l3.857-3.844 3.858 3.844v23.793zm-9.533-25.625H7.39l2.572-2.563h19.507l-2.572 2.563zM5.571 781.438h20.572v-23.063H5.57v23.063zm5.143-34.569A1.3 1.3 0 0 1 12 745.562h18a1.3 1.3 0 0 1 1.286 1.307v3.818H10.714v-3.818zm23.143 4.587v-4.587c0-2.127-1.727-3.869-3.857-3.869H12c-2.13 0-3.857 1.742-3.857 3.87v4.586l-4.766 4.754c-.24.23-.377.563-.377.91v25.624c0 .333.138.654.377.884.239.244.57.372.909.372h33.428c.338 0 .67-.128.91-.372.238-.23.376-.55.376-.884V757.12c0-.346-.138-.679-.377-.91l-4.766-4.753z"/>
            <path d="M13.575 770.316c.451-.91 1.417-2.037 2.282-2.985.46.512.946 1.05 1.377 1.614.373.474.697.961.907 1.371.213.41.293.743.288.897-.003 1.41-1.158 2.55-2.572 2.563-1.414-.013-2.569-1.153-2.571-2.563-.005-.154.074-.487.289-.897zm2.282 6.022c2.84-.013 5.14-2.306 5.143-5.125-.005-.769-.253-1.435-.567-2.063-.955-1.845-2.723-3.562-3.626-4.56a1.282 1.282 0 0 0-1.9 0c-.597.653-1.593 1.665-2.46 2.78-.437.563-.846 1.153-1.166 1.78-.313.628-.562 1.294-.567 2.063.003 2.819 2.304 5.112 5.143 5.125z"/>
        </g>
        <g fill="#D86C6B">
            <path d="M145.286 776.338c.71 0 1.285-.576 1.285-1.281v-12.813c0-.717-.576-1.28-1.285-1.28-.71 0-1.286.563-1.286 1.28v12.813c0 .705.576 1.281 1.286 1.281"/>
            <path d="M159.429 772.494c0 .705-.576 1.256-1.286 1.256h-3.857v-15.375h3.857a1.3 1.3 0 0 1 1.286 1.307v12.812zm-7.715-15.375v20.5c0 2.114-1.728 3.818-3.857 3.818H132.43c-2.13 0-3.858-1.704-3.858-3.818v-21.807h2.572v3.87c0 1.665 1.286 3.075 2.571 3.6v11.775a1.286 1.286 0 0 0 2.572 0v-11.775c1.285-.525 2.571-1.935 2.571-3.6v-3.87h12.857v1.307zM132.43 750.7c.717 0 1.382.205 1.98.577.429.256.964.243 1.38-.026.416-.282.633-.768.56-1.255a4.1 4.1 0 0 1-.063-.564 3.854 3.854 0 0 1 3.857-3.844 3.854 3.854 0 0 1 3.857 3.844c.001.128-.023.307-.063.564-.073.487.144.973.56 1.255.416.27.95.282 1.379.026.599-.359 1.264-.577 1.981-.577 1.67 0 3.083 1.269 3.618 2.55h-13.904c-.17 0-.338.051-.493.115a1.284 1.284 0 0 0-.792 1.192v5.125c0 .705-.576 1.268-1.286 1.281-.71-.013-1.286-.576-1.286-1.281v-5.125c0-.18-.034-.346-.1-.5-.06-.14-.152-.269-.261-.384-.006-.013-.009-.026-.015-.026-.008-.013-.018-.013-.027-.025a1.19 1.19 0 0 0-.389-.257 1.318 1.318 0 0 0-.493-.115h-3.618c.534-1.281 1.947-2.55 3.618-2.55zm25.714 5.112h-3.857v-1.255c0-3.536-2.88-6.406-6.429-6.406-.485 0-.949.064-1.399.166a6.416 6.416 0 0 0-6.315-5.291 6.416 6.416 0 0 0-6.316 5.291 6.266 6.266 0 0 0-1.398-.166c-3.549 0-6.429 2.87-6.429 6.406v23.062c0 3.537 2.877 6.381 6.429 6.381h15.428c3.551 0 6.429-2.844 6.429-6.38v-1.308h3.857c2.13 0 3.857-1.704 3.857-3.818v-12.812c0-2.127-1.727-3.87-3.857-3.87z"/>
        </g>
        <path fill="#F8B337" d="M269 758.375v-7.662c2.615 0 4.807.987 6.47 2.614 1.367 1.345 2.292 2.485 2.58 5.048H269zm8.117 10.25H269v-7.688h8.998l-.881 7.688zm-1.335 11.66h-.002a1.3 1.3 0 0 1-1.3 1.152h-10.96c-.671 0-1.234-.486-1.3-1.14l-.002-.025-1.042-9.085h15.647l-1.041 9.097zm-14.899-11.66l-.881-7.688h6.383v7.688h-5.502zm1.648-15.298c1.063-1.038 2.546-1.807 3.854-2.242v7.29h-6.434c.287-2.563 1.212-3.703 2.58-5.048zm22.161 5.048h-4c-.655-5.125-6.461-10.224-11.692-10.224v-1.282a1.31 1.31 0 0 1 1.308-1.307h6.538c.722 0 1.308-.563 1.308-1.268 0-.705-1.308-1.294-1.308-1.294h-6.538c-2.167 0-3.923 1.742-3.923 3.87v1.575c-5.231 1.077-8.52 4.805-9.077 9.93h-4c-.722 0-1.308.577-1.308 1.281 0 .705.586 1.282 1.308 1.282h4.061l2.25 19.218c.21 2.563 1.892 3.844 3.902 3.844h10.958c2.01 0 3.692-1.281 3.901-3.844h.001l2.25-19.218h4.061c.722 0 1.308-.577 1.308-1.282 0-.704-.586-1.281-1.308-1.281zM404.125 753.25h-23.25a1.29 1.29 0 0 1-1.292-1.281 1.29 1.29 0 0 1 1.292-1.282h23.25c.713 0 1.29.577 1.292 1.282a1.29 1.29 0 0 1-1.292 1.281zm-2.954 5.266c-4.917.794-8.67 5.022-8.671 10.122.003 4.459 2.861 8.238 6.86 9.648l-.183 1.998a1.282 1.282 0 0 1-1.286 1.153H387.11c-.668 0-1.226-.5-1.286-1.165l-2.242-24.46h17.838l-.248 2.704zm-1.566 17.105c-2.663-1.218-4.524-3.87-4.522-6.97-.001-3.6 2.488-6.612 5.845-7.457l-1.323 14.427zm4.52-27.496h-14.208v-1.256c0-.717.578-1.307 1.291-1.307h6.459c.713 0 1.291-.563 1.291-1.268 0-.705-1.291-1.294-1.291-1.294h-6.459a3.879 3.879 0 0 0-3.875 3.87v1.255h-6.458c-2.14 0-3.874 1.717-3.875 3.844.001 2.127 1.735 3.843 3.875 3.843h.112l2.263 24.69A3.86 3.86 0 0 0 387.11 784h10.782a3.86 3.86 0 0 0 3.859-3.498l2.263-24.69h.112c2.14 0 3.874-1.716 3.875-3.843-.001-2.127-1.735-3.844-3.875-3.844z"/>
        <g fill="#F1A317">
            <path d="M527.2 764.807v7.687c0 2.46-1.02 4.703-2.674 6.33a9.345 9.345 0 0 1-3.402 2.114 8.88 8.88 0 0 0 .248-.461c.02-.039.037-.09.055-.129.264-.576.446-1.23.516-1.934l.014-.09-.63-.051c.002-.026-.627-.039-.627-.051v-.026l.662-.513.638-.064v-7.687c0-2.268.86-4.318 2.278-5.932a9.194 9.194 0 0 1 3.924-2.576 6.307 6.307 0 0 0-1.002 3.383zm-7.8 7.687v5.087l-.02.41-.022.128c-.024.218-.075.397-.122.59a4.05 4.05 0 0 1-.177.563 4.986 4.986 0 0 1-.16.308c-.076.14-.153.282-.244.397a2.703 2.703 0 0 1-.348.359c-.067.064-.125.14-.197.192a3.55 3.55 0 0 1-.695.435l-.367.167-.053.026-.091.038a4.53 4.53 0 0 1-1.397.218 4.7 4.7 0 0 1-1.355-.192 4.863 4.863 0 0 1-.86-.436l-.04-.013c-.798-.487-1.379-1.191-1.564-2.332l-.018-.09a3.165 3.165 0 0 1-.07-.73v-7.687c0-2.742-1.3-5.24-2.6-7.214v-10.724c0-3.549 2.9-6.406 6.5-6.406 1.786 0 3.406.718 4.589 1.884 1.183 1.166 1.911 2.754 1.911 4.522v10.724c-2.6 1.974-2.6 4.472-2.6 7.214v2.562zm-6.13 11.134h.006-.007zm-6.796-4.804c-1.653-1.627-2.674-3.87-2.674-6.33v-7.687a6.307 6.307 0 0 0-1.002-3.383 9.186 9.186 0 0 1 3.924 2.576c1.419 1.614 2.278 3.664 2.278 5.932v7.687c0 .385.033 1.256.122 1.256h-.004c.004 0 .01-.013.013.013.003.013.003-.013.006-.013h.002c.124 1.281.382 1.448.733 2.037-1.285-.461-2.445-1.153-3.398-2.088zm27.226-20.449h-2.6c-2.414 0-5.2.756-6.5 1.986v-8.367c0-4.945-4.086-8.968-9.1-8.968-2.512 0-4.796.999-6.438 2.613a8.905 8.905 0 0 0-2.662 6.355v8.367c-2.6-1.23-4.086-1.986-6.5-1.986h-2.6a1.306 1.306 0 0 0-1.3 1.294c0 .167.035.346.1.5.064.154.16.282.28.397.243.243.578.371.92.371h.001c2.136 0 3.899 1.756 3.899 3.87v7.687c0 6.343 5.256 11.506 11.7 11.506h5.2c6.444 0 11.7-5.163 11.7-11.506v-7.687c0-2.114 1.763-3.87 3.899-3.87h.001c.342 0 .677-.128.92-.371.24-.23.38-.551.38-.897a1.306 1.306 0 0 0-1.3-1.294z"/>
            <path d="M512.9 758.375h2.6c.718 0 1.3-.577 1.3-1.281 0-.705-.582-1.282-1.3-1.282h-2.6c-.718 0-1.3.577-1.3 1.282 0 .704.582 1.281 1.3 1.281M518.1 750.688h-2.6c-.718 0-1.3.576-1.3 1.28 0 .705.582 1.282 1.3 1.282h2.6c.718 0 1.3-.577 1.3-1.281 0-.705-.582-1.282-1.3-1.282M518.1 760.938h-2.6c-.718 0-1.3.576-1.3 1.28 0 .705.582 1.282 1.3 1.282h2.6c.718 0 1.3-.577 1.3-1.281 0-.705-.582-1.282-1.3-1.282M516.8 767.344c0-.705-.582-1.282-1.3-1.282h-2.6c-.718 0-1.3.577-1.3 1.282 0 .704.582 1.281 1.3 1.281h2.6c.718 0 1.3-.577 1.3-1.281M518.1 771.188h-2.6c-.718 0-1.3.576-1.3 1.28 0 .705.582 1.282 1.3 1.282h2.6c.718 0 1.3-.577 1.3-1.281 0-.705-.582-1.282-1.3-1.282"/>
        </g>
        <path fill="#F1A317" d="M656.183 766.421c-1.161 1.153-2.683 2.204-4.382 2.204h-.007c-.111 0-.24 0-.368.013-.222.025-.448.025-.676.025a7.562 7.562 0 0 1-3.281-.756h-.008a7.76 7.76 0 0 1-4.08-4.817c1.619-.474 3.133-1.32 4.368-2.6.492-.5.48-1.32-.028-1.807a1.27 1.27 0 0 0-1.812.025c-1.299 1.345-3.068 2.05-5.003 2.242-.133 0-.265.013-.406.013-.14 0-.274-.013-.409-.013-1.93-.192-3.7-.897-5-2.242a1.27 1.27 0 0 0-1.812-.025 1.274 1.274 0 0 0-.028 1.806c1.237 1.281 2.75 2.127 4.367 2.601a7.738 7.738 0 0 1-4.079 4.805l-.008.013a7.554 7.554 0 0 1-3.281.743c-.386 0-.746-.026-1.044-.09h-.057c-3.702-.525-6.592-3.741-6.587-7.598a7.617 7.617 0 0 1 2.332-5.51c1.42-1.383 3.34-2.203 5.29-2.203.4 0 .801.038 1.202.102.341.065.7-.025.98-.23a1.3 1.3 0 0 0 .513-.859c.495-3.83 3.857-6.688 7.621-6.675 3.749-.013 7.125 2.793 7.62 6.663.047.358.229.666.513.87.284.206.635.296.98.231.332-.064.723-.076 1.137-.076 2.122 0 4.036.858 5.432 2.255a7.674 7.674 0 0 1 2.255 5.445c0 2.114-.86 4.049-2.255 5.445zm-10.558 8.636v5.125c0 .692-.586 1.255-1.281 1.255h-7.688c-.695 0-1.281-.563-1.281-1.255v-5.125a6.344 6.344 0 0 0-1.78-4.408c.362-.128.717-.269 1.059-.435a10.377 10.377 0 0 0 5.495-6.701c.097 0 .193-.013.29-.013h.12c.097 0 .195.013.292.013a10.298 10.298 0 0 0 5.495 6.675c.342.167.697.32 1.06.449a6.4 6.4 0 0 0-1.781 4.42zm5.125-24.344h-.33c-1.163-4.548-5.304-7.687-9.92-7.687-4.64 0-8.746 3.177-9.914 7.674-.134 0-.268-.013-.401-.013-5.324.013-10.167 4.382-10.185 10.276.004 4.984 3.593 9.135 8.32 10.045.198.115.416.205.649.205 2.105 0 3.843 1.73 3.843 3.844v5.125c0 2.114 1.721 3.818 3.844 3.818h7.688c2.123 0 3.843-1.704 3.843-3.818v-5.125c0-2.114 1.74-3.844 3.844-3.844a1.2 1.2 0 0 0 .62-.192c4.747-.897 8.346-5.061 8.349-10.058-.003-5.663-4.595-10.25-10.25-10.25zM773.298 776.5c-1.09.835-2.39 1.5-3.835 1.995.058-.092.125-.17.181-.248 1.608-2.476 2.506-5.98 2.51-10.463a1.3 1.3 0 0 0-1.308-1.303 1.3 1.3 0 0 0-1.308 1.303c.004 4.143-.853 7.153-2.087 9.043-.92 1.38-1.836 2.163-3.143 2.488v-8.925a1.3 1.3 0 0 0-1.308-1.303 1.3 1.3 0 0 0-1.308 1.303v8.938c0-.013-.153-.026-.231-.039-1.078-.273-2.397-1.511-3.374-3.57-.983-2.059-1.625-4.847-1.625-7.961v-.04c0-.716-.58-1.276-1.302-1.29-.723 0-1.052.027-1.055 1.33h-.259c0 3.466.701 6.606 1.88 9.082.299.612.628 1.198.99 1.733-1.902-.69-3.614-1.785-4.957-3.193-1.954-2.045-3.144-4.69-3.144-7.622v-.04c0-5.563 3.223-10.359 7.884-12.717 3.034-1.525 5.193-4.509 5.193-8.027v-.039a1.3 1.3 0 0 1 1.308-1.303 1.3 1.3 0 0 1 1.308 1.303v.04c0 3.517 2.155 6.501 5.189 8.026 4.68 2.371 7.889 7.193 7.888 12.783-.017 3.96-1.553 6.75-4.087 8.717zm-2.62-23.818c-2.281-1.16-3.755-3.284-3.755-5.708v-.039a3.913 3.913 0 0 0-3.923-3.909 3.913 3.913 0 0 0-3.923 3.91v.038c0 2.424-1.476 4.548-3.76 5.708-5.505 2.775-9.317 8.456-9.317 15.023v.053c0 3.648 1.497 6.945 3.866 9.42 2.368 2.476 5.608 4.157 9.174 4.652.33.052.653.065.98.105l-.56.56c-.511.508-.511 1.511 0 2.02.51.508 1.344.182 1.854.182h-.002l1.69-1.863 1.689 1.59c.511.508 1.339.468 1.849-.04a1.323 1.323 0 0 0 0-1.863l-.566-.586c3.39-.391 6.48-1.499 8.92-3.362 3.146-2.398 5.123-6.125 5.106-10.79-.001-6.606-3.794-12.313-9.323-15.101zM899.573 752.444l.722-5.41 4.692 4.685-5.414.725zm1.292 8.968c-.176 0-.485 1.19-.97 1.67l-3.503 3.506h-21.257c.175 0 .485-1.177.968-1.656l-.915-.92.916.907 3.504-3.507h21.257zm-13.78 14.494a3.848 3.848 0 0 1-2.745 1.139c-.999 0-1.985-.376-2.746-1.126l-5.49-5.5c-.364-.375-.636-1.243-.824-1.243h18.524l-6.719 6.73zm-11.382 5.099l-4.69-4.685 5.414-.725-.724 5.41zm13.212-28.885a3.846 3.846 0 0 1 2.745-1.139c.998 0 1.984.375 2.746 1.139l5.49 5.487c.364.362.635 1.217.824 1.217h-18.524l6.719-6.704zm19.753-.375l-8.393-8.386a1.27 1.27 0 0 0-1.33-.31 1.278 1.278 0 0 0-.868 1.047l-.947 7.092-.894-.893a6.44 6.44 0 0 0-4.576-1.902 6.437 6.437 0 0 0-4.575 1.902l-12.812 12.812a6.448 6.448 0 0 0-1.894 4.568c0 .065.014.117.015.169 0 .025-.01.038-.01.064 0 .052.024.09.03.156a6.436 6.436 0 0 0 1.86 4.192l.894.893-7.092.945a1.295 1.295 0 0 0-.744 2.2l8.393 8.399c.347.336.865.466 1.33.31.465-.168.803-.569.868-1.06l.947-7.092.894.893a6.438 6.438 0 0 0 4.576 1.902 6.44 6.44 0 0 0 4.575-1.902l8.928-8.93h.001l3.883-3.882a6.448 6.448 0 0 0 1.894-4.568c0-.065-.014-.117-.015-.169 0-.026.01-.039.01-.051 0-.065-.024-.104-.03-.156-.089-1.527-.696-3.04-1.86-4.206l-.894-.893 7.092-.944a1.295 1.295 0 0 0 .744-2.2z"/>
        <g fill="#F1A317">
            <path d="M158.418 520.48c-.548.422-1.137.83-1.746 1.221-.878-1.537-1.4-3.3-1.4-5.201 0-1.903.523-3.668 1.403-5.207a25.268 25.268 0 0 1 2.266 1.638 31.89 31.89 0 0 1 3.74 3.569 31.495 31.495 0 0 1-4.263 3.98zm-4.04 2.497c-1.778.842-3.688 1.405-5.62 1.398-3.757.016-7.454-2.095-10.184-4.306a31.89 31.89 0 0 1-3.74-3.569 31.495 31.495 0 0 1 4.263-3.98c2.671-2.06 6.138-3.907 9.66-3.895 1.933-.008 3.846.551 5.623 1.393a13.12 13.12 0 0 0-.003 12.96zm-27.772-2.314v-8.326l4.133 4.163-4.133 4.163zm33.962-9.782c-2.97-2.382-7.09-4.865-11.81-4.881-4.72.016-8.841 2.499-11.811 4.881a34.25 34.25 0 0 0-4.152 3.978l-6.57-6.619a1.296 1.296 0 0 0-1.421-.284 1.315 1.315 0 0 0-.804 1.212v14.664c0 .53.318 1.009.804 1.212.487.203 1.048.09 1.42-.284l6.571-6.62a34.25 34.25 0 0 0 4.152 3.979c2.97 2.382 7.091 4.865 11.81 4.881 4.72-.016 8.842-2.499 11.811-4.881 2.971-2.397 4.811-4.76 4.851-4.81a1.317 1.317 0 0 0 0-1.619c-.04-.05-1.88-2.412-4.85-4.809z"/>
            <path d="M159.182 513.875c-.72 0-1.303.588-1.303 1.313 0 .724.584 1.312 1.303 1.312.72 0 1.303-.588 1.303-1.313 0-.724-.584-1.312-1.303-1.312M148.758 516.5c.719 0 1.303-.588 1.303-1.313 0-.724-.584-1.312-1.303-1.312-2.16.003-3.907 1.763-3.91 3.938.003 2.174 1.75 3.934 3.91 3.937.719 0 1.303-.588 1.303-1.313 0-.724-.584-1.312-1.303-1.312a1.317 1.317 0 0 1-1.303-1.313 1.317 1.317 0 0 1 1.303-1.312"/>
        </g>
        <g fill="#F1A317">
            <path d="M529.178 529.178c-3.253 3.25-7.73 5.26-12.678 5.26s-9.425-2.01-12.678-5.26c-3.25-3.253-5.26-7.73-5.26-12.678s2.01-9.425 5.26-12.678c3.253-3.25 7.73-5.26 12.678-5.26.23 0 .456.025.685.035a5.073 5.073 0 0 0-.685 2.528c.003 1.913 1.063 3.553 2.61 4.428a6.47 6.47 0 0 0-.047.697 7.695 7.695 0 0 0 7.687 7.688c.24 0 .469-.024.697-.048.875 1.545 2.514 2.607 4.428 2.61a5.073 5.073 0 0 0 2.528-.685c.01.229.035.454.035.685 0 4.948-2.01 9.425-5.26 12.678zm7.457-16.47a1.28 1.28 0 0 0-1.107-1.036 1.28 1.28 0 0 0-1.321.746 2.56 2.56 0 0 1-2.332 1.52c-1.147.002-2.115-.772-2.438-1.834a1.281 1.281 0 0 0-1.52-.879c-.403.095-.786.15-1.167.15a5.142 5.142 0 0 1-5.125-5.125c0-.38.055-.764.15-1.167a1.282 1.282 0 0 0-.879-1.52c-1.062-.323-1.836-1.291-1.833-2.438a2.562 2.562 0 0 1 1.518-2.332 1.28 1.28 0 1 0-.288-2.428A20.532 20.532 0 0 0 516.5 496c-11.308.003-20.497 9.192-20.5 20.5.003 11.308 9.192 20.497 20.5 20.5 11.308-.003 20.497-9.192 20.5-20.5 0-1.304-.136-2.57-.365-3.793z"/>
            <path d="M511.375 503.688a2.562 2.562 0 1 0-.001 5.123 2.562 2.562 0 0 0 .001-5.123M506.25 513.938a2.562 2.562 0 1 0-.001 5.123 2.562 2.562 0 0 0 .001-5.124M519.063 524.188a2.562 2.562 0 1 0-.002 5.123 2.562 2.562 0 0 0 .001-5.124M517.781 519.063a1.282 1.282 0 1 0 0-2.564 1.282 1.282 0 0 0 0 2.563M528.031 521.625a1.282 1.282 0 1 0 .001 2.563 1.282 1.282 0 0 0 0-2.563M510.094 524.188a1.282 1.282 0 1 0 0 2.563 1.282 1.282 0 0 0 0-2.563"/>
        </g>
    </g>
</svg>
