<svg xmlns="http://www.w3.org/2000/svg" width="74" height="35" viewBox="0 0 74 35">
    <g fill="#C6C5BE" fill-rule="evenodd">
        <path d="M.764 17.569c.152-.487 2.252-.45 3.398 1.462.267.45.687 1.35.535 1.65-.191.374-.84-.525-1.07-.075-.305.6-.42 2.062-.42 3.074 0 1.987.879 3.674 2.482 3.674 4.124 0 6.301-6.598 5.881-23.582v-.187c-2.291.412-4.62.862-6.11 1.312-.84.262-1.87-1.275-1.87-2.25 0-.15.076-.262.19-.3C7.866.923 17.87-.464 18.52.248c.114.15 1.03.975 1.336 1.425l-.382.6c-.725.15-2.138.224-3.169.45-.687.15-1.527.3-2.367.45.267.15.496.337.649.487.382 18.97-2.062 26.168-7.485 26.168C3.207 29.828 0 26.192 0 22.405c0-2.024.306-3.262.764-4.836M45.185 24.55c-.971 0-1.83-1.066-1.83-3.348 0-3.863 1.905-11.737 4.633-11.737.71 0 1.12.736 1.12 1.509 0 .883-.186 2.833-.598 3.753.524.589 1.01.552 1.01.552-.262 3.68-2.354 9.272-4.335 9.272m6.24-13.982s.037-.294.037-.515c0-2.355-1.718-2.833-3.213-2.833-4.708 0-7.808 5.703-7.808 12.363 0 1.16.13 2.205.374 3.12-.374 1.005-1.063 2.362-2.092 2.362-1.046 0-1.532-.92-1.532-2.797 0-4.893 1.98-9.676 2.279-13.43C39.582 7.663 37.864 7 36.855 7c-.337 0-.673 0-.822.331-2.093 3.974-3.512 8.352-4.932 12.436h-.15c0-3.642 1.047-7.064 1.495-10.596.112-.92-.747-.994-1.195-.994C28.97 8.177 28 15.573 28 23.41c0 2.796.448 4.783 2.13 4.783.784 0 1.27-.552 1.27-.552-.037-3.458 1.943-9.713 3.474-12.988h.449c-.374 1.877-.971 5.703-.971 7.285 0 2.98.71 5.63 3.25 5.63 1.964 0 3.36-1.599 3.932-3.065.862 1.514 2.19 2.366 3.838 2.366 1.457 0 2.69-1.987 3.325-2.87-.747 4.194-2.69 8.095-4.371 8.83-.56-.331-2.279-1.655-2.727-2.722-1.756-.295-2.653 1.14-2.167 2.318C39.88 33.49 42.309 35 45.148 35c2.055 0 4.334-2.98 5.717-9.272 1.232-5.63 1.68-11.259 2.129-14.165.112-.847-1.345-.994-1.57-.994"/>
        <path d="M23.957 21.9c-.186 1.031-.515 3.586-1.934 3.282-1.378-.295-1.982-3.325-2.207-5.922a27.486 27.486 0 0 1-.104-3.149c-.005-.149-.847-.033-1.098.098 0 0 0-1.035.248-2.35.198-1.138.524-2.155.94-2.932.06.138.13.272.212.398a2.693 2.693 0 0 0 2.757 3.791c.365.484.887.84 1.483.993.038.01.079.017.118.025a37.708 37.708 0 0 1-.201 4.154c-.072.696-.15 1.26-.214 1.611m3.038-6.822a7.74 7.74 0 0 0-.055-.498 1.478 1.478 0 0 1-1.426-.384 1.48 1.48 0 0 1-.691.414 1.115 1.115 0 0 1-.171-.027c-.345-.089-.62-.33-.755-.663l-.293-.72-.728.28a1.114 1.114 0 0 1-1.485-1.316c.04-.152.11-.292.21-.416l.463-.574-.544-.499c-.304-.28-.428-.7-.324-1.098a1.03 1.03 0 0 1 .078-.202c.254-.282.61-.46.994-.488a1.465 1.465 0 0 1 .248-1.655L22.263 7c-3.223.036-5.305 4.195-5.978 7.786-.216 1.233-.305 2.583-.281 3.924.067 3.699 1 7.322 2.534 8.166.515-.149.939-.391 1.114-.686 0 0 .405.53 1.15.69 3.726.797 5.07-2.5 5.757-6.198.204-1.145.387-2.7.431-4.35.011-.414.013-.834.005-1.255M71.6 7.244c-1.212.011-2.068 10.56-2.384 12.046-.04.188-.094.402-.16.632a2.763 2.763 0 0 0-.667 1.298 2.72 2.72 0 0 0-.43.206 2.781 2.781 0 0 0-1.278 3.02c-.182.137-.362.217-.536.218-.697.007-.853-.92-.862-1.921-.042-4.49 1.09-9.103 2.26-13.456-.082-.964-1.189-1.51-1.886-1.504-.441.004-.807.119-.878.342-.717 2.287-1.375 4.748-1.808 7.257-.262.231-.581.393-.976.393-.588 0-1.102-.595-1.102-1.114 0-2.71 1.579-4.898 1.579-6.272 0-.742-.404-1.113-1.175-1.299-1.064-.26-2.019.037-2.276.928-.514 1.856-1.248 5.196-2.203 7.57l-.257-.11c.11-2.19.587-4.936.698-6.94 0 0-1.138-.854-2.093-.854-1.248 0-1.358 3.563-1.469 7.237-.293 8.053-.697 9.426-.697 10.502 0 .817 2.386 1.856 3.23 1.336.074-6.086 1.836-10.354 2.497-12.358.147 1.633.698 3.08 2.864 3.08.405 0 .773-.099 1.106-.261a31.177 31.177 0 0 0-.254 4.14c.02 2.19.6 5.338 3.537 5.31.642-.006 1.17-.308 1.596-.752.019.015.036.033.054.048-.063.445-.018.901.131 1.326-.921 2.778-2.249 4.982-3.443 5.519-.55-.334-2.24-1.67-2.68-2.746-1.726-.297-2.607 1.15-2.13 2.337.44 1.077 2.827 2.598 5.617 2.598 1.472 0 3.06-1.599 4.34-4.922l.47-1.69c-.182-.224-.246-.49-.27-.823a1.055 1.055 0 0 0-.335-.675 1.145 1.145 0 0 1-.035-.978l.31-.734-.723-.324a1.127 1.127 0 0 1-.517-.465 1.152 1.152 0 0 1 .404-1.564c.138-.082.29-.132.45-.15l.743-.08-.029-.756a1.144 1.144 0 0 1 .559-1.031c.116-.07.25-.116.4-.139l.639-.098.04-.652c.031-.515.271-1.004.64-1.308l.416-1.893h.002c.648-2.619 1.395-5.419 1.37-8.013-.007-.816-1.188-1.473-2.4-1.461"/>
    </g>
</svg>
