<svg xmlns="http://www.w3.org/2000/svg" xmlns:xlink="http://www.w3.org/1999/xlink" width="239" height="113" viewBox="0 0 239 113">
    <defs>
        <path id="a" d="M0 .177h62.547V95.45H0z"/>
    </defs>
    <g fill="none" fill-rule="evenodd">
        <g>
            <mask id="b" fill="#fff">
                <use xlink:href="#a"/>
            </mask>
            <path fill="#FFF" d="M2.405 56.22c.482-1.56 7.097-1.439 10.705 4.68.842 1.44 2.166 4.32 1.684 5.278-.6 1.2-2.646-1.68-3.367-.24-.963 1.92-1.323 6.598-1.323 9.838 0 6.358 2.766 11.757 7.818 11.757 12.99 0 19.847-21.115 18.524-75.462v-.6c-7.217 1.32-14.554 2.76-19.246 4.199-2.646.84-5.893-4.08-5.893-7.198 0-.48.24-.84.6-.96 12.87-4.559 44.385-8.997 46.43-6.719.36.48 3.248 3.12 4.21 4.56l-1.203 1.92c-2.285.48-6.736.719-9.983 1.439-2.165.48-4.812.96-7.458 1.44.842.48 1.564 1.08 2.045 1.56 1.203 60.704-6.495 83.738-23.576 83.738C10.104 95.45 0 83.813 0 71.696 0 65.22.963 61.26 2.405 56.22" mask="url(#b)"/>
        </g>
        <path fill="#FFF" d="M143.993 78.04c-3.108 0-5.858-3.468-5.858-10.882 0-12.555 6.097-38.146 14.825-38.146 2.272 0 3.588 2.392 3.588 4.902 0 2.87-.599 9.208-1.915 12.198 1.675 1.913 3.229 1.793 3.229 1.793-.837 11.959-7.532 30.135-13.869 30.135M163.96 32.6s.12-.957.12-1.675c0-7.653-5.5-9.207-10.282-9.207-15.065 0-24.987 18.535-24.987 40.179 0 3.769.418 7.168 1.198 10.14-1.197 3.269-3.403 7.677-6.695 7.677-3.347 0-4.902-2.99-4.902-9.088 0-15.904 6.336-31.45 7.293-43.646.36-3.828-5.14-5.98-8.369-5.98-1.076 0-2.152 0-2.63 1.076-6.696 12.915-11.239 27.145-15.781 40.418h-.479c0-11.837 3.348-22.96 4.783-34.438.358-2.99-2.392-3.23-3.826-3.23C92.108 24.827 89 48.863 89 74.333c0 9.089 1.435 15.546 6.814 15.546 2.511 0 4.065-1.794 4.065-1.794-.119-11.24 6.218-31.568 11.119-42.211h1.435c-1.195 6.098-3.108 18.535-3.108 23.677 0 9.686 2.271 18.295 10.401 18.295 6.287 0 10.75-5.195 12.584-9.96 2.757 4.922 7.01 7.688 12.28 7.688 4.664 0 8.61-6.457 10.642-9.328-2.391 13.633-8.609 26.309-13.989 28.7-1.793-1.077-7.292-5.38-8.727-8.848-5.62-.958-8.489 3.706-6.935 7.533 1.434 3.467 9.206 8.37 18.292 8.37 6.576 0 13.87-9.686 18.294-30.134 3.945-18.296 5.38-36.591 6.813-46.037.36-2.752-4.303-3.23-5.02-3.23M77.04 70.168c-.607 3.406-1.683 11.835-6.329 10.832-4.51-.973-6.487-10.971-7.223-19.543-.364-4.228-.426-8.111-.34-10.39-.016-.491-2.771-.11-3.593.323 0 0 .002-3.416.81-7.755.651-3.754 1.715-7.112 3.08-9.675.196.453.42.896.693 1.313a8.874 8.874 0 0 0-.516 1.457c-1.224 4.739 1.62 9.596 6.343 10.826a8.742 8.742 0 0 0 3.197.229 8.87 8.87 0 0 0 4.85 3.276c.126.033.258.054.388.08.052 5.013-.272 9.951-.659 13.71-.236 2.296-.493 4.16-.7 5.317m9.942-22.515c-.044-.55-.1-1.1-.18-1.641a4.813 4.813 0 0 1-4.667-1.267 4.839 4.839 0 0 1-2.262 1.365 3.62 3.62 0 0 1-.56-.088 3.635 3.635 0 0 1-2.47-2.188l-.959-2.38-2.383.929a3.612 3.612 0 0 1-2.237.134 3.68 3.68 0 0 1-2.624-4.478 3.65 3.65 0 0 1 .688-1.373l1.515-1.894-1.777-1.648a3.68 3.68 0 0 1-1.063-3.625c.059-.224.147-.446.256-.665a4.835 4.835 0 0 1 3.254-1.61 4.87 4.87 0 0 1 .81-5.461 58.027 58.027 0 0 0-.828-.763c-10.546.119-17.36 13.844-19.562 25.695-.71 4.066-1 8.524-.921 12.95.218 12.205 3.273 24.16 8.295 26.945 1.684-.49 3.07-1.29 3.644-2.263 0 0 1.326 1.75 3.765 2.276 12.194 2.633 16.59-8.25 18.839-20.453.667-3.778 1.267-8.908 1.411-14.353.036-1.367.044-2.753.016-4.144M231.227 22.791c-3.924.038-6.694 34.32-7.72 39.153a29.45 29.45 0 0 1-.519 2.054h.001a8.992 8.992 0 0 0-2.157 4.218c-.479.181-.944.404-1.391.67-3.656 2.173-5.204 6.613-3.935 10.543a9.203 9.203 0 0 1-.205-.727c-.589.443-1.172.702-1.736.707-2.258.022-2.762-2.988-2.792-6.245-.136-14.593 3.528-29.585 7.32-43.733-.268-3.133-3.85-4.909-6.11-4.887-1.426.014-2.611.386-2.843 1.114-2.32 7.432-4.45 15.428-5.855 23.583-.848.752-1.88 1.276-3.16 1.276-1.902 0-3.566-1.93-3.566-3.618 0-8.805 5.112-15.92 5.112-20.384 0-2.412-1.308-3.618-3.804-4.221-3.447-.844-6.538.12-7.371 3.015-1.664 6.03-4.042 16.885-7.133 24.605l-.832-.362c.356-7.116 1.902-16.04 2.259-22.554 0 0-3.685-2.774-6.776-2.774-4.043 0-4.399 11.578-4.756 23.518-.95 26.173-2.258 30.635-2.258 34.133 0 2.653 7.727 6.03 10.461 4.342.238-19.78 5.944-33.65 8.084-40.163.475 5.307 2.26 10.01 9.273 10.01a8.056 8.056 0 0 0 3.581-.85c-.559 4.49-.863 8.996-.822 13.455.066 7.116 1.945 17.35 11.455 17.258 2.077-.02 3.786-1.002 5.168-2.443l-.001-.001c.06.05.115.107.175.157a9.175 9.175 0 0 0 .425 4.308c-2.984 9.03-7.283 16.193-11.15 17.937-1.784-1.086-7.252-5.428-8.679-8.925-5.587-.965-8.44 3.738-6.895 7.598 1.426 3.498 9.154 8.442 18.188 8.442 4.766 0 9.91-5.197 14.053-15.997l1.518-5.492c-.585-.73-.792-1.594-.874-2.676-.084-1.108-.699-1.804-1.083-2.194a3.734 3.734 0 0 1-.111-3.176l1.004-2.388-2.341-1.051a3.653 3.653 0 0 1-1.676-1.512c-1.02-1.768-.433-4.049 1.308-5.084a3.58 3.58 0 0 1 1.455-.485l2.408-.262-.092-2.456a3.722 3.722 0 0 1 1.809-3.351 3.582 3.582 0 0 1 1.293-.45l2.07-.32.13-2.12c.102-1.673.878-3.261 2.075-4.25l1.346-6.153.004-.001c2.1-8.51 4.519-17.609 4.44-26.04-.025-2.654-3.85-4.788-7.772-4.75"/>
    </g>
</svg>
