<svg xmlns="http://www.w3.org/2000/svg" width="52" height="52" viewBox="0 0 52 52">
    <path fill="#F8B337" fill-rule="evenodd" d="M29.57 27.627a4.813 4.813 0 1 1-3.564-4.649l3.651-3.651-1.449-7.246a2.407 2.407 0 0 1 .658-2.173l8.508-8.509C38.734.04 41.06.744 41.436 2.63l1.387 6.935 6.935 1.387c1.885.377 2.589 2.703 1.23 4.062l-8.509 8.508a2.407 2.407 0 0 1-2.173.658L33.06 22.73l-3.652 3.653c.106.397.162.814.162 1.244zm8.586-16.799l-.59-2.814-4.375 4.375.563 2.84 4.402-4.4zm-.995 7.801l2.843.56 4.418-4.417-2.848-.556-4.413 4.413zM21.93 13.466a2.407 2.407 0 1 1 .939 4.72 9.63 9.63 0 0 0-7.737 9.441 9.626 9.626 0 0 0 9.626 9.626 9.63 9.63 0 0 0 9.426-7.658 2.407 2.407 0 0 1 4.712.978 14.443 14.443 0 0 1-14.138 11.494c-7.974 0-14.439-6.465-14.439-14.44 0-6.92 4.903-12.828 11.611-14.161zm2.828-9.904a2.407 2.407 0 0 1 0 4.813c-10.632 0-19.252 8.62-19.252 19.252 0 10.633 8.62 19.253 19.252 19.253 10.633 0 19.252-8.62 19.252-19.253a2.407 2.407 0 1 1 4.813 0c0 13.291-10.774 24.066-24.065 24.066-13.29 0-24.065-10.775-24.065-24.066 0-13.29 10.775-24.065 24.065-24.065z"/>
</svg>
